<mxfile host="Electron" modified="2024-02-02T07:54:39.896Z" agent="Mozilla/5.0 (Windows NT 10.0; Win64; x64) AppleWebKit/537.36 (KHTML, like Gecko) draw.io/23.0.2 Chrome/120.0.6099.109 Electron/28.1.0 Safari/537.36" etag="-srDTNxNnBhoyjRI4mcx" version="23.0.2" type="device">
  <diagram name="Page-1" id="q1uquXbSE9S7UwNG7zP_">
    <mxGraphModel dx="4521" dy="4574" grid="1" gridSize="10" guides="1" tooltips="1" connect="1" arrows="1" fold="1" page="1" pageScale="1" pageWidth="2339" pageHeight="3300" math="0" shadow="0">
      <root>
        <mxCell id="0" />
        <mxCell id="1" parent="0" />
        <mxCell id="mu9LarTH8MNEVjzcVXOM-23" style="edgeStyle=orthogonalEdgeStyle;rounded=0;orthogonalLoop=1;jettySize=auto;html=1;entryX=0.5;entryY=0;entryDx=0;entryDy=0;" parent="1" target="mu9LarTH8MNEVjzcVXOM-5" edge="1">
          <mxGeometry relative="1" as="geometry">
            <mxPoint x="662.5" y="410" as="sourcePoint" />
          </mxGeometry>
        </mxCell>
        <mxCell id="mu9LarTH8MNEVjzcVXOM-26" style="edgeStyle=orthogonalEdgeStyle;rounded=0;orthogonalLoop=1;jettySize=auto;html=1;" parent="1" source="mu9LarTH8MNEVjzcVXOM-2" target="mu9LarTH8MNEVjzcVXOM-22" edge="1">
          <mxGeometry relative="1" as="geometry" />
        </mxCell>
        <mxCell id="mu9LarTH8MNEVjzcVXOM-2" value="~reset_n = 1" style="rhombus;whiteSpace=wrap;html=1;rounded=1;" parent="1" vertex="1">
          <mxGeometry x="617.5" y="150" width="90" height="80" as="geometry" />
        </mxCell>
        <mxCell id="mu9LarTH8MNEVjzcVXOM-7" style="edgeStyle=orthogonalEdgeStyle;rounded=0;orthogonalLoop=1;jettySize=auto;html=1;exitX=1;exitY=0.5;exitDx=0;exitDy=0;entryX=1;entryY=0.5;entryDx=0;entryDy=0;" parent="1" source="mu9LarTH8MNEVjzcVXOM-5" edge="1">
          <mxGeometry relative="1" as="geometry">
            <mxPoint x="732.5" y="370" as="targetPoint" />
            <mxPoint x="707.5" y="526" as="sourcePoint" />
            <Array as="points">
              <mxPoint x="764" y="510" />
              <mxPoint x="764" y="370" />
            </Array>
          </mxGeometry>
        </mxCell>
        <mxCell id="mu9LarTH8MNEVjzcVXOM-11" value="" style="edgeStyle=orthogonalEdgeStyle;rounded=0;orthogonalLoop=1;jettySize=auto;html=1;entryX=0.5;entryY=0;entryDx=0;entryDy=0;" parent="1" source="mu9LarTH8MNEVjzcVXOM-5" target="mu9LarTH8MNEVjzcVXOM-24" edge="1">
          <mxGeometry relative="1" as="geometry">
            <mxPoint x="662.5" y="611" as="targetPoint" />
          </mxGeometry>
        </mxCell>
        <mxCell id="mu9LarTH8MNEVjzcVXOM-5" value="i:enable = 1" style="rhombus;whiteSpace=wrap;html=1;rounded=1;" parent="1" vertex="1">
          <mxGeometry x="617.5" y="470" width="90" height="80" as="geometry" />
        </mxCell>
        <mxCell id="mu9LarTH8MNEVjzcVXOM-9" value="&lt;b&gt;N&lt;/b&gt;" style="text;html=1;align=center;verticalAlign=middle;resizable=0;points=[];autosize=1;strokeColor=none;fillColor=none;" parent="1" vertex="1">
          <mxGeometry x="715.5" y="486" width="30" height="30" as="geometry" />
        </mxCell>
        <mxCell id="mu9LarTH8MNEVjzcVXOM-12" value="&lt;b&gt;Y&lt;/b&gt;" style="text;html=1;align=center;verticalAlign=middle;resizable=0;points=[];autosize=1;strokeColor=none;fillColor=none;rotation=0;" parent="1" vertex="1">
          <mxGeometry x="661.5" y="550" width="30" height="30" as="geometry" />
        </mxCell>
        <mxCell id="mu9LarTH8MNEVjzcVXOM-22" value="&lt;font size=&quot;1&quot; style=&quot;border-color: var(--border-color);&quot;&gt;&lt;b style=&quot;border-color: var(--border-color); font-size: 12px;&quot;&gt;IDLE&lt;br&gt;&lt;/b&gt;&lt;/font&gt;o:clk_en&amp;nbsp; &amp;nbsp; &amp;nbsp; &amp;nbsp; &amp;nbsp; &amp;nbsp; &amp;nbsp; &amp;nbsp; &amp;nbsp;= 0&lt;br style=&quot;border-color: var(--border-color);&quot;&gt;&lt;div style=&quot;border-color: var(--border-color); text-align: left;&quot;&gt;o:sda_low_en&lt;span style=&quot;white-space: pre;&quot;&gt;&#x9;&lt;/span&gt;&lt;span style=&quot;border-color: var(--border-color); background-color: initial;&quot;&gt;&lt;span style=&quot;white-space: pre;&quot;&gt;&amp;nbsp;&lt;/span&gt;&lt;/span&gt;&amp;nbsp; &amp;nbsp; &amp;nbsp;&amp;nbsp;&lt;span style=&quot;border-color: var(--border-color); background-color: initial;&quot;&gt;= 0&lt;/span&gt;&lt;/div&gt;&lt;div style=&quot;border-color: var(--border-color); text-align: left;&quot;&gt;&lt;span style=&quot;border-color: var(--border-color); background-color: initial;&quot;&gt;o:write_data_en&amp;nbsp; &amp;nbsp; &amp;nbsp;= 0&lt;/span&gt;&lt;/div&gt;&lt;div style=&quot;border-color: var(--border-color); text-align: left;&quot;&gt;&lt;span style=&quot;border-color: var(--border-color); background-color: initial;&quot;&gt;o:write_addr_en&amp;nbsp; &amp;nbsp; &amp;nbsp;= 0&lt;/span&gt;&lt;/div&gt;&lt;div style=&quot;border-color: var(--border-color); text-align: left;&quot;&gt;o:receive_data_en = 0&lt;/div&gt;&lt;div style=&quot;border-color: var(--border-color); text-align: left;&quot;&gt;o: i2c_sda_en&lt;span style=&quot;white-space: pre;&quot;&gt;&#x9;&lt;/span&gt;&amp;nbsp; &amp;nbsp; &amp;nbsp; = 0&lt;/div&gt;&lt;div style=&quot;border-color: var(--border-color); text-align: left;&quot;&gt;o: i2c_scl_en&lt;span style=&quot;white-space: pre;&quot;&gt;&#x9;&lt;/span&gt;&amp;nbsp; &amp;nbsp; &amp;nbsp;= 0&lt;/div&gt;" style="ellipse;whiteSpace=wrap;html=1;aspect=fixed;" parent="1" vertex="1">
          <mxGeometry x="574.45" y="260" width="177.37" height="177.37" as="geometry" />
        </mxCell>
        <mxCell id="iJ1C_qz70vdLPiYAmIDf-1" style="edgeStyle=orthogonalEdgeStyle;rounded=0;orthogonalLoop=1;jettySize=auto;html=1;entryX=0.5;entryY=0;entryDx=0;entryDy=0;" parent="1" source="mu9LarTH8MNEVjzcVXOM-24" target="mu9LarTH8MNEVjzcVXOM-25" edge="1">
          <mxGeometry relative="1" as="geometry" />
        </mxCell>
        <mxCell id="mu9LarTH8MNEVjzcVXOM-24" value="&lt;b style=&quot;border-color: var(--border-color); font-size: 14px;&quot;&gt;START&lt;br&gt;&lt;/b&gt;&lt;div style=&quot;border-color: var(--border-color); text-align: left; font-size: 14px;&quot;&gt;&lt;div style=&quot;border-color: var(--border-color); font-size: 12px;&quot;&gt;&lt;span style=&quot;border-color: var(--border-color); background-color: initial;&quot;&gt;o: count_bit&lt;span style=&quot;&quot;&gt;&lt;span style=&quot;white-space: pre;&quot;&gt;&amp;nbsp;&amp;nbsp;&amp;nbsp;&amp;nbsp;&lt;/span&gt;&lt;/span&gt;= 7&lt;/span&gt;&lt;/div&gt;&lt;div style=&quot;border-color: var(--border-color); font-size: 12px;&quot;&gt;&lt;span style=&quot;border-color: var(--border-color); background-color: initial;&quot;&gt;o: i2c_sda_en&amp;nbsp; = 1&lt;/span&gt;&lt;/div&gt;&lt;div style=&quot;border-color: var(--border-color); font-size: 12px;&quot;&gt;&lt;span style=&quot;border-color: var(--border-color); background-color: initial;&quot;&gt;o: i2c_scl_en&lt;span style=&quot;&quot;&gt;&lt;span style=&quot;white-space: pre;&quot;&gt;&amp;nbsp;&amp;nbsp;&amp;nbsp;&amp;nbsp;&lt;/span&gt;&lt;/span&gt;= 1&lt;/span&gt;&lt;/div&gt;&lt;div style=&quot;border-color: var(--border-color); font-size: 12px;&quot;&gt;&lt;span style=&quot;border-color: var(--border-color); background-color: initial;&quot;&gt;&lt;span style=&quot;border-color: var(--border-color);&quot;&gt;o: sda_low_en = 1&lt;/span&gt;&lt;/span&gt;&lt;/div&gt;&lt;div style=&quot;border-color: var(--border-color); font-size: 12px;&quot;&gt;&lt;span style=&quot;border-color: var(--border-color); background-color: initial;&quot;&gt;o: clk_en_o&lt;span style=&quot;white-space: pre;&quot;&gt;&#x9;&lt;/span&gt;= 1&lt;/span&gt;&lt;/div&gt;&lt;div style=&quot;border-color: var(--border-color); font-size: 12px;&quot;&gt;&lt;br&gt;&lt;/div&gt;&lt;/div&gt;" style="ellipse;whiteSpace=wrap;html=1;aspect=fixed;" parent="1" vertex="1">
          <mxGeometry x="581.88" y="620" width="162.5" height="162.5" as="geometry" />
        </mxCell>
        <mxCell id="mu9LarTH8MNEVjzcVXOM-29" value="" style="edgeStyle=orthogonalEdgeStyle;rounded=0;orthogonalLoop=1;jettySize=auto;html=1;" parent="1" source="mu9LarTH8MNEVjzcVXOM-25" target="mu9LarTH8MNEVjzcVXOM-28" edge="1">
          <mxGeometry relative="1" as="geometry" />
        </mxCell>
        <mxCell id="mu9LarTH8MNEVjzcVXOM-25" value="&lt;b&gt;ADDRESS&lt;br&gt;&lt;/b&gt;&lt;span style=&quot;text-align: left;&quot;&gt;o:write_addr_en&amp;nbsp; &amp;nbsp;= 1&lt;br&gt;&lt;/span&gt;o:scl_clk&amp;nbsp; &amp;nbsp; &amp;nbsp; &amp;nbsp; &amp;nbsp; &amp;nbsp; &amp;nbsp; &amp;nbsp; = 1&lt;br&gt;&lt;span style=&quot;font-size: 14px;&quot;&gt;&lt;br&gt;&lt;/span&gt;" style="ellipse;whiteSpace=wrap;html=1;aspect=fixed;" parent="1" vertex="1">
          <mxGeometry x="574.37" y="900" width="176.25" height="176.25" as="geometry" />
        </mxCell>
        <mxCell id="mu9LarTH8MNEVjzcVXOM-27" value="&lt;b&gt;Y&lt;/b&gt;" style="text;html=1;align=center;verticalAlign=middle;resizable=0;points=[];autosize=1;strokeColor=none;fillColor=none;" parent="1" vertex="1">
          <mxGeometry x="660" y="238" width="30" height="30" as="geometry" />
        </mxCell>
        <mxCell id="tmTTcgoxyq8jgErgWOrB-6" value="" style="edgeStyle=orthogonalEdgeStyle;rounded=0;orthogonalLoop=1;jettySize=auto;html=1;" parent="1" source="mu9LarTH8MNEVjzcVXOM-28" target="tmTTcgoxyq8jgErgWOrB-5" edge="1">
          <mxGeometry relative="1" as="geometry" />
        </mxCell>
        <mxCell id="mu9LarTH8MNEVjzcVXOM-28" value="count = 0" style="rhombus;whiteSpace=wrap;html=1;" parent="1" vertex="1">
          <mxGeometry x="571.25" y="1130" width="182.5" height="80" as="geometry" />
        </mxCell>
        <mxCell id="tmTTcgoxyq8jgErgWOrB-26" style="edgeStyle=orthogonalEdgeStyle;rounded=0;orthogonalLoop=1;jettySize=auto;html=1;entryX=1.008;entryY=0.409;entryDx=0;entryDy=0;entryPerimeter=0;exitX=0.963;exitY=0.521;exitDx=0;exitDy=0;exitPerimeter=0;" parent="1" source="mu9LarTH8MNEVjzcVXOM-28" edge="1">
          <mxGeometry relative="1" as="geometry">
            <mxPoint x="749.37" y="972.0862500000001" as="targetPoint" />
            <mxPoint x="760" y="1170" as="sourcePoint" />
            <Array as="points">
              <mxPoint x="887" y="1172" />
              <mxPoint x="887" y="972" />
            </Array>
          </mxGeometry>
        </mxCell>
        <mxCell id="tmTTcgoxyq8jgErgWOrB-4" value="&lt;b&gt;N&lt;/b&gt;" style="text;html=1;align=center;verticalAlign=middle;resizable=0;points=[];autosize=1;strokeColor=none;fillColor=none;rotation=0;" parent="1" vertex="1">
          <mxGeometry x="766.5" y="1136" width="30" height="30" as="geometry" />
        </mxCell>
        <mxCell id="tmTTcgoxyq8jgErgWOrB-8" value="" style="edgeStyle=orthogonalEdgeStyle;rounded=0;orthogonalLoop=1;jettySize=auto;html=1;" parent="1" source="tmTTcgoxyq8jgErgWOrB-5" target="tmTTcgoxyq8jgErgWOrB-7" edge="1">
          <mxGeometry relative="1" as="geometry" />
        </mxCell>
        <mxCell id="tmTTcgoxyq8jgErgWOrB-5" value="&lt;font style=&quot;font-size: 14px;&quot;&gt;&lt;b&gt;READ_ACK&lt;br&gt;&lt;br&gt;&lt;/b&gt;write_addr_en&amp;nbsp; &amp;nbsp;= 0&lt;br&gt;count&amp;nbsp; &amp;nbsp; &amp;nbsp; &amp;nbsp; &amp;nbsp; &amp;nbsp; &amp;nbsp; &amp;nbsp; = 7&lt;br&gt;o: i2c_sda_en&lt;span style=&quot;border-color: var(--border-color); font-size: 12px; text-align: left;&quot;&gt;&lt;span style=&quot;white-space: pre;&quot;&gt;&amp;nbsp;&lt;/span&gt;&lt;/span&gt;&lt;span style=&quot;font-size: 12px; text-align: left;&quot;&gt;&amp;nbsp;= 0&lt;/span&gt;&lt;br&gt;&lt;/font&gt;" style="ellipse;whiteSpace=wrap;html=1;aspect=fixed;" parent="1" vertex="1">
          <mxGeometry x="586.1" y="1250" width="154.06" height="154.06" as="geometry" />
        </mxCell>
        <mxCell id="tmTTcgoxyq8jgErgWOrB-12" value="" style="edgeStyle=orthogonalEdgeStyle;rounded=0;orthogonalLoop=1;jettySize=auto;html=1;" parent="1" source="tmTTcgoxyq8jgErgWOrB-7" target="tmTTcgoxyq8jgErgWOrB-11" edge="1">
          <mxGeometry relative="1" as="geometry" />
        </mxCell>
        <mxCell id="tmTTcgoxyq8jgErgWOrB-18" style="edgeStyle=orthogonalEdgeStyle;rounded=0;orthogonalLoop=1;jettySize=auto;html=1;" parent="1" source="tmTTcgoxyq8jgErgWOrB-7" target="tmTTcgoxyq8jgErgWOrB-54" edge="1">
          <mxGeometry relative="1" as="geometry">
            <mxPoint x="6" y="2714" as="targetPoint" />
            <Array as="points">
              <mxPoint x="20" y="1491" />
              <mxPoint x="20" y="2714" />
            </Array>
          </mxGeometry>
        </mxCell>
        <mxCell id="tmTTcgoxyq8jgErgWOrB-7" value="&lt;font style=&quot;font-size: 12px;&quot;&gt;i: i2c_sda = 0&lt;br&gt;&lt;/font&gt;" style="rhombus;whiteSpace=wrap;html=1;rounded=1;" parent="1" vertex="1">
          <mxGeometry x="585.01" y="1446" width="156.24" height="90" as="geometry" />
        </mxCell>
        <mxCell id="tmTTcgoxyq8jgErgWOrB-10" value="&lt;b&gt;N&lt;/b&gt;" style="text;html=1;align=center;verticalAlign=middle;resizable=0;points=[];autosize=1;strokeColor=none;fillColor=none;rotation=0;" parent="1" vertex="1">
          <mxGeometry x="523.12" y="1446" width="30" height="30" as="geometry" />
        </mxCell>
        <mxCell id="iJ1C_qz70vdLPiYAmIDf-5" style="edgeStyle=orthogonalEdgeStyle;rounded=0;orthogonalLoop=1;jettySize=auto;html=1;entryX=0.5;entryY=0;entryDx=0;entryDy=0;" parent="1" source="tmTTcgoxyq8jgErgWOrB-11" target="tmTTcgoxyq8jgErgWOrB-49" edge="1">
          <mxGeometry relative="1" as="geometry" />
        </mxCell>
        <mxCell id="iJ1C_qz70vdLPiYAmIDf-9" style="edgeStyle=orthogonalEdgeStyle;rounded=0;orthogonalLoop=1;jettySize=auto;html=1;entryX=0.5;entryY=0;entryDx=0;entryDy=0;" parent="1" source="tmTTcgoxyq8jgErgWOrB-11" target="tmTTcgoxyq8jgErgWOrB-55" edge="1">
          <mxGeometry relative="1" as="geometry" />
        </mxCell>
        <mxCell id="tmTTcgoxyq8jgErgWOrB-11" value="&lt;font style=&quot;font-size: 12px;&quot;&gt;rw_i = 0&lt;br&gt;&lt;/font&gt;" style="rhombus;whiteSpace=wrap;html=1;rounded=1;" parent="1" vertex="1">
          <mxGeometry x="585.01" y="1580" width="156.24" height="90" as="geometry" />
        </mxCell>
        <mxCell id="tmTTcgoxyq8jgErgWOrB-13" value="&lt;b&gt;Y&lt;/b&gt;" style="text;html=1;align=center;verticalAlign=middle;resizable=0;points=[];autosize=1;strokeColor=none;fillColor=none;rotation=0;" parent="1" vertex="1">
          <mxGeometry x="665.5" y="1544" width="30" height="30" as="geometry" />
        </mxCell>
        <mxCell id="iJ1C_qz70vdLPiYAmIDf-8" style="edgeStyle=orthogonalEdgeStyle;rounded=0;orthogonalLoop=1;jettySize=auto;html=1;" parent="1" source="tmTTcgoxyq8jgErgWOrB-14" target="tmTTcgoxyq8jgErgWOrB-21" edge="1">
          <mxGeometry relative="1" as="geometry" />
        </mxCell>
        <mxCell id="tmTTcgoxyq8jgErgWOrB-14" value="&lt;b&gt;WRITE_DATA&lt;/b&gt;&lt;br&gt;write_data_en = 1" style="ellipse;whiteSpace=wrap;html=1;rounded=1;" parent="1" vertex="1">
          <mxGeometry x="260" y="1860" width="170" height="150" as="geometry" />
        </mxCell>
        <mxCell id="iJ1C_qz70vdLPiYAmIDf-13" style="edgeStyle=orthogonalEdgeStyle;rounded=0;orthogonalLoop=1;jettySize=auto;html=1;" parent="1" source="tmTTcgoxyq8jgErgWOrB-16" target="tmTTcgoxyq8jgErgWOrB-28" edge="1">
          <mxGeometry relative="1" as="geometry" />
        </mxCell>
        <mxCell id="tmTTcgoxyq8jgErgWOrB-16" value="&lt;b&gt;READ_DATA&lt;/b&gt;&lt;br&gt;&lt;br&gt;receive_data_en = 1" style="ellipse;whiteSpace=wrap;html=1;rounded=1;" parent="1" vertex="1">
          <mxGeometry x="906.26" y="1860" width="170" height="150" as="geometry" />
        </mxCell>
        <mxCell id="tmTTcgoxyq8jgErgWOrB-19" value="&lt;b&gt;N&lt;/b&gt;" style="text;html=1;align=center;verticalAlign=middle;resizable=0;points=[];autosize=1;strokeColor=none;fillColor=none;rotation=0;" parent="1" vertex="1">
          <mxGeometry x="787.5" y="1591" width="30" height="30" as="geometry" />
        </mxCell>
        <mxCell id="tmTTcgoxyq8jgErgWOrB-20" value="&lt;b&gt;Y&lt;/b&gt;" style="text;html=1;align=center;verticalAlign=middle;resizable=0;points=[];autosize=1;strokeColor=none;fillColor=none;rotation=0;" parent="1" vertex="1">
          <mxGeometry x="477.5" y="1591" width="30" height="30" as="geometry" />
        </mxCell>
        <mxCell id="tmTTcgoxyq8jgErgWOrB-25" value="" style="edgeStyle=orthogonalEdgeStyle;rounded=0;orthogonalLoop=1;jettySize=auto;html=1;entryX=0.013;entryY=0.415;entryDx=0;entryDy=0;entryPerimeter=0;" parent="1" source="tmTTcgoxyq8jgErgWOrB-21" target="tmTTcgoxyq8jgErgWOrB-14" edge="1">
          <mxGeometry relative="1" as="geometry">
            <mxPoint x="190" y="1960" as="targetPoint" />
            <Array as="points">
              <mxPoint x="130" y="2170" />
              <mxPoint x="130" y="1922" />
            </Array>
          </mxGeometry>
        </mxCell>
        <mxCell id="tmTTcgoxyq8jgErgWOrB-42" value="" style="edgeStyle=orthogonalEdgeStyle;rounded=0;orthogonalLoop=1;jettySize=auto;html=1;" parent="1" source="tmTTcgoxyq8jgErgWOrB-21" target="tmTTcgoxyq8jgErgWOrB-41" edge="1">
          <mxGeometry relative="1" as="geometry" />
        </mxCell>
        <mxCell id="tmTTcgoxyq8jgErgWOrB-21" value="count = 0" style="rhombus;whiteSpace=wrap;html=1;" parent="1" vertex="1">
          <mxGeometry x="253.75" y="2130" width="182.5" height="80" as="geometry" />
        </mxCell>
        <mxCell id="tmTTcgoxyq8jgErgWOrB-31" value="" style="edgeStyle=orthogonalEdgeStyle;rounded=0;orthogonalLoop=1;jettySize=auto;html=1;entryX=1;entryY=0.5;entryDx=0;entryDy=0;" parent="1" source="tmTTcgoxyq8jgErgWOrB-28" target="tmTTcgoxyq8jgErgWOrB-16" edge="1">
          <mxGeometry relative="1" as="geometry">
            <mxPoint x="1150" y="1930" as="targetPoint" />
            <Array as="points">
              <mxPoint x="1170" y="2145" />
              <mxPoint x="1170" y="1930" />
              <mxPoint x="1076" y="1930" />
            </Array>
          </mxGeometry>
        </mxCell>
        <mxCell id="tmTTcgoxyq8jgErgWOrB-48" value="" style="edgeStyle=orthogonalEdgeStyle;rounded=0;orthogonalLoop=1;jettySize=auto;html=1;" parent="1" source="tmTTcgoxyq8jgErgWOrB-28" target="tmTTcgoxyq8jgErgWOrB-47" edge="1">
          <mxGeometry relative="1" as="geometry" />
        </mxCell>
        <mxCell id="tmTTcgoxyq8jgErgWOrB-28" value="count = 0" style="rhombus;whiteSpace=wrap;html=1;" parent="1" vertex="1">
          <mxGeometry x="899.37" y="2105" width="182.5" height="80" as="geometry" />
        </mxCell>
        <mxCell id="tmTTcgoxyq8jgErgWOrB-33" value="&lt;b&gt;Y&lt;/b&gt;" style="text;html=1;align=center;verticalAlign=middle;resizable=0;points=[];autosize=1;strokeColor=none;fillColor=none;rotation=0;" parent="1" vertex="1">
          <mxGeometry x="360" y="2220" width="30" height="30" as="geometry" />
        </mxCell>
        <mxCell id="tmTTcgoxyq8jgErgWOrB-34" value="&lt;b&gt;Y&lt;/b&gt;" style="text;html=1;align=center;verticalAlign=middle;resizable=0;points=[];autosize=1;strokeColor=none;fillColor=none;rotation=0;" parent="1" vertex="1">
          <mxGeometry x="936.25" y="2205" width="30" height="30" as="geometry" />
        </mxCell>
        <mxCell id="tmTTcgoxyq8jgErgWOrB-35" value="&lt;b&gt;N&lt;/b&gt;" style="text;html=1;align=center;verticalAlign=middle;resizable=0;points=[];autosize=1;strokeColor=none;fillColor=none;rotation=0;" parent="1" vertex="1">
          <mxGeometry x="1096.25" y="2115" width="30" height="30" as="geometry" />
        </mxCell>
        <mxCell id="tmTTcgoxyq8jgErgWOrB-36" value="&lt;b&gt;N&lt;/b&gt;" style="text;html=1;align=center;verticalAlign=middle;resizable=0;points=[];autosize=1;strokeColor=none;fillColor=none;rotation=0;" parent="1" vertex="1">
          <mxGeometry x="223.75" y="2140" width="30" height="30" as="geometry" />
        </mxCell>
        <mxCell id="tmTTcgoxyq8jgErgWOrB-44" value="" style="edgeStyle=orthogonalEdgeStyle;rounded=0;orthogonalLoop=1;jettySize=auto;html=1;" parent="1" source="tmTTcgoxyq8jgErgWOrB-41" target="tmTTcgoxyq8jgErgWOrB-43" edge="1">
          <mxGeometry relative="1" as="geometry" />
        </mxCell>
        <mxCell id="iJ1C_qz70vdLPiYAmIDf-15" style="edgeStyle=orthogonalEdgeStyle;rounded=0;orthogonalLoop=1;jettySize=auto;html=1;entryX=0;entryY=0.5;entryDx=0;entryDy=0;" parent="1" source="tmTTcgoxyq8jgErgWOrB-41" target="iJ1C_qz70vdLPiYAmIDf-14" edge="1">
          <mxGeometry relative="1" as="geometry">
            <Array as="points">
              <mxPoint x="190" y="2345" />
              <mxPoint x="190" y="2960" />
            </Array>
          </mxGeometry>
        </mxCell>
        <mxCell id="tmTTcgoxyq8jgErgWOrB-41" value="&lt;b&gt;READ_LATER_ACK&lt;/b&gt;&lt;br&gt;&lt;br&gt;write_data_en&amp;nbsp;= 0&lt;br&gt;count&amp;nbsp; &amp;nbsp; &amp;nbsp; &amp;nbsp; &amp;nbsp; &amp;nbsp; &amp;nbsp; = 7" style="ellipse;whiteSpace=wrap;html=1;rounded=1;" parent="1" vertex="1">
          <mxGeometry x="270" y="2280" width="150" height="130" as="geometry" />
        </mxCell>
        <mxCell id="tmTTcgoxyq8jgErgWOrB-45" style="edgeStyle=orthogonalEdgeStyle;rounded=0;orthogonalLoop=1;jettySize=auto;html=1;" parent="1" source="tmTTcgoxyq8jgErgWOrB-43" edge="1">
          <mxGeometry relative="1" as="geometry">
            <mxPoint x="345" y="1670" as="targetPoint" />
            <Array as="points">
              <mxPoint x="60" y="2515" />
              <mxPoint x="60" y="1670" />
            </Array>
          </mxGeometry>
        </mxCell>
        <mxCell id="tmTTcgoxyq8jgErgWOrB-53" value="" style="edgeStyle=orthogonalEdgeStyle;rounded=0;orthogonalLoop=1;jettySize=auto;html=1;entryX=0;entryY=0.5;entryDx=0;entryDy=0;" parent="1" source="tmTTcgoxyq8jgErgWOrB-43" target="tmTTcgoxyq8jgErgWOrB-54" edge="1">
          <mxGeometry relative="1" as="geometry">
            <mxPoint x="520" y="2669.9999999999995" as="targetPoint" />
            <Array as="points">
              <mxPoint x="345" y="2659" />
            </Array>
          </mxGeometry>
        </mxCell>
        <mxCell id="tmTTcgoxyq8jgErgWOrB-43" value="&lt;font style=&quot;font-size: 12px;&quot;&gt;i: i2c_sda = 0&lt;br&gt;&lt;/font&gt;" style="rhombus;whiteSpace=wrap;html=1;rounded=1;" parent="1" vertex="1">
          <mxGeometry x="266.88" y="2470" width="156.24" height="90" as="geometry" />
        </mxCell>
        <mxCell id="tmTTcgoxyq8jgErgWOrB-46" value="&lt;b&gt;Y&lt;/b&gt;" style="text;html=1;align=center;verticalAlign=middle;resizable=0;points=[];autosize=1;strokeColor=none;fillColor=none;rotation=0;" parent="1" vertex="1">
          <mxGeometry x="200" y="2480" width="30" height="30" as="geometry" />
        </mxCell>
        <mxCell id="tmTTcgoxyq8jgErgWOrB-61" value="" style="edgeStyle=orthogonalEdgeStyle;rounded=0;orthogonalLoop=1;jettySize=auto;html=1;" parent="1" source="tmTTcgoxyq8jgErgWOrB-47" target="tmTTcgoxyq8jgErgWOrB-60" edge="1">
          <mxGeometry relative="1" as="geometry" />
        </mxCell>
        <mxCell id="iJ1C_qz70vdLPiYAmIDf-19" style="edgeStyle=orthogonalEdgeStyle;rounded=0;orthogonalLoop=1;jettySize=auto;html=1;" parent="1" source="tmTTcgoxyq8jgErgWOrB-47" edge="1">
          <mxGeometry relative="1" as="geometry">
            <mxPoint x="720" y="2960" as="targetPoint" />
            <Array as="points">
              <mxPoint x="1180" y="2307" />
              <mxPoint x="1180" y="2960" />
            </Array>
          </mxGeometry>
        </mxCell>
        <mxCell id="tmTTcgoxyq8jgErgWOrB-47" value="&lt;b&gt;WRITE_ACK&lt;/b&gt;&lt;br&gt;&lt;br&gt;sda_write_en = 1&lt;br&gt;count&amp;nbsp; &amp;nbsp; &amp;nbsp; &amp;nbsp; &amp;nbsp; &amp;nbsp; &amp;nbsp; = 7" style="ellipse;whiteSpace=wrap;html=1;rounded=1;" parent="1" vertex="1">
          <mxGeometry x="908.13" y="2235" width="166.25" height="145" as="geometry" />
        </mxCell>
        <mxCell id="tmTTcgoxyq8jgErgWOrB-58" style="edgeStyle=orthogonalEdgeStyle;rounded=0;orthogonalLoop=1;jettySize=auto;html=1;" parent="1" source="tmTTcgoxyq8jgErgWOrB-49" target="tmTTcgoxyq8jgErgWOrB-54" edge="1">
          <mxGeometry relative="1" as="geometry">
            <Array as="points">
              <mxPoint x="610" y="1740" />
            </Array>
          </mxGeometry>
        </mxCell>
        <mxCell id="iJ1C_qz70vdLPiYAmIDf-6" value="" style="edgeStyle=orthogonalEdgeStyle;rounded=0;orthogonalLoop=1;jettySize=auto;html=1;" parent="1" source="tmTTcgoxyq8jgErgWOrB-49" target="tmTTcgoxyq8jgErgWOrB-14" edge="1">
          <mxGeometry relative="1" as="geometry" />
        </mxCell>
        <mxCell id="tmTTcgoxyq8jgErgWOrB-49" value="empty = 1" style="rhombus;whiteSpace=wrap;html=1;" parent="1" vertex="1">
          <mxGeometry x="253.75" y="1700" width="182.5" height="80" as="geometry" />
        </mxCell>
        <mxCell id="tmTTcgoxyq8jgErgWOrB-63" style="edgeStyle=orthogonalEdgeStyle;rounded=0;orthogonalLoop=1;jettySize=auto;html=1;strokeWidth=1;" parent="1" edge="1">
          <mxGeometry relative="1" as="geometry">
            <mxPoint x="750" y="339" as="targetPoint" />
            <mxPoint x="662.8699999999997" y="2720" as="sourcePoint" />
            <Array as="points">
              <mxPoint x="660" y="2720" />
              <mxPoint x="660" y="2713" />
              <mxPoint x="1340" y="2713" />
              <mxPoint x="1340" y="339" />
            </Array>
          </mxGeometry>
        </mxCell>
        <mxCell id="tmTTcgoxyq8jgErgWOrB-54" value="&lt;b&gt;STOP&lt;/b&gt;&lt;br&gt;scl_en = 0&lt;br style=&quot;border-color: var(--border-color);&quot;&gt;" style="ellipse;whiteSpace=wrap;html=1;rounded=1;" parent="1" vertex="1">
          <mxGeometry x="574.37" y="2589" width="144.5" height="140" as="geometry" />
        </mxCell>
        <mxCell id="iJ1C_qz70vdLPiYAmIDf-10" style="edgeStyle=orthogonalEdgeStyle;rounded=0;orthogonalLoop=1;jettySize=auto;html=1;entryX=0.5;entryY=0;entryDx=0;entryDy=0;" parent="1" source="tmTTcgoxyq8jgErgWOrB-55" target="tmTTcgoxyq8jgErgWOrB-16" edge="1">
          <mxGeometry relative="1" as="geometry" />
        </mxCell>
        <mxCell id="tmTTcgoxyq8jgErgWOrB-55" value="full = 1" style="rhombus;whiteSpace=wrap;html=1;" parent="1" vertex="1">
          <mxGeometry x="899.37" y="1700" width="182.5" height="80" as="geometry" />
        </mxCell>
        <mxCell id="tmTTcgoxyq8jgErgWOrB-59" style="edgeStyle=orthogonalEdgeStyle;rounded=0;orthogonalLoop=1;jettySize=auto;html=1;entryX=0.735;entryY=0.068;entryDx=0;entryDy=0;entryPerimeter=0;" parent="1" source="tmTTcgoxyq8jgErgWOrB-55" target="tmTTcgoxyq8jgErgWOrB-54" edge="1">
          <mxGeometry relative="1" as="geometry" />
        </mxCell>
        <mxCell id="tmTTcgoxyq8jgErgWOrB-62" style="edgeStyle=orthogonalEdgeStyle;rounded=0;orthogonalLoop=1;jettySize=auto;html=1;" parent="1" source="tmTTcgoxyq8jgErgWOrB-60" target="tmTTcgoxyq8jgErgWOrB-54" edge="1">
          <mxGeometry relative="1" as="geometry">
            <mxPoint x="770" y="2660" as="targetPoint" />
            <Array as="points">
              <mxPoint x="991" y="2660" />
            </Array>
          </mxGeometry>
        </mxCell>
        <mxCell id="tmTTcgoxyq8jgErgWOrB-64" style="edgeStyle=orthogonalEdgeStyle;rounded=0;orthogonalLoop=1;jettySize=auto;html=1;strokeWidth=1;" parent="1" source="tmTTcgoxyq8jgErgWOrB-60" edge="1">
          <mxGeometry relative="1" as="geometry">
            <mxPoint x="984" y="1670" as="targetPoint" />
            <Array as="points">
              <mxPoint x="1310" y="2495" />
              <mxPoint x="1310" y="1670" />
            </Array>
          </mxGeometry>
        </mxCell>
        <mxCell id="tmTTcgoxyq8jgErgWOrB-60" value="&lt;font style=&quot;font-size: 12px;&quot;&gt;i: i2c_sda = 0&lt;br&gt;&lt;/font&gt;" style="rhombus;whiteSpace=wrap;html=1;rounded=1;" parent="1" vertex="1">
          <mxGeometry x="913.13" y="2450" width="156.24" height="90" as="geometry" />
        </mxCell>
        <mxCell id="Fu_METP8LDXJ-n-BrhK0-3" value="&lt;b&gt;N&lt;/b&gt;" style="text;html=1;align=center;verticalAlign=middle;resizable=0;points=[];autosize=1;strokeColor=none;fillColor=none;rotation=0;" parent="1" vertex="1">
          <mxGeometry x="350" y="2570" width="30" height="30" as="geometry" />
        </mxCell>
        <mxCell id="iJ1C_qz70vdLPiYAmIDf-2" value="&lt;b style=&quot;font-weight:normal;&quot; id=&quot;docs-internal-guid-6e894ac0-7fff-985e-965b-61dba7624beb&quot;&gt;&lt;span style=&quot;font-size: 15pt; font-family: Arial, sans-serif; color: rgb(0, 0, 0); background-color: rgb(255, 255, 255); font-weight: 400; font-style: normal; font-variant: normal; text-decoration: none; vertical-align: baseline;&quot;&gt;&lt;span style=&quot;border:none;display:inline-block;overflow:hidden;width:467px;height:509px;&quot;&gt;&lt;img src=&quot;https://lh7-us.googleusercontent.com/geozbQdg353-IM724WzxPcl9ictt6iF_qd0VP72vGKaEGlKAjKyi2JPnCQDOoi33zm6W6O-czcVy_6lcOiD9T7ZmcnKCErn1Xgtl2aU04-eyhlwW36e2uCR2VpbJ0FFsbjNdYDRrrkwgmm4Gj9DGJkU&quot; width=&quot;467&quot; height=&quot;509&quot; style=&quot;margin-left:0px;margin-top:0px;&quot;&gt;&lt;/span&gt;&lt;/span&gt;&lt;/b&gt;" style="text;whiteSpace=wrap;html=1;" parent="1" vertex="1">
          <mxGeometry x="-600" y="-540" width="500" height="540" as="geometry" />
        </mxCell>
        <mxCell id="iJ1C_qz70vdLPiYAmIDf-4" value="&lt;b style=&quot;font-weight:normal;&quot; id=&quot;docs-internal-guid-cf112418-7fff-eabd-1593-7d486b403da6&quot;&gt;&lt;span style=&quot;font-size: 13pt; font-family: Arial, sans-serif; color: rgb(0, 0, 0); background-color: rgb(255, 255, 255); font-weight: 400; font-style: normal; font-variant: normal; text-decoration: none; vertical-align: baseline;&quot;&gt;&lt;span style=&quot;border:none;display:inline-block;overflow:hidden;width:602px;height:207px;&quot;&gt;&lt;img src=&quot;https://lh7-us.googleusercontent.com/LgPN3KOZvXug-mFO_eES_uRvxIcVlBJm5WPjA_V4iQ5N8l87yKkHFUoFHbdLxnJxN3c4b8pCao56uUhhOAMQh5aQxXVR5HYGxxEnOOHfi_mw8zQY8G1_p3sczrw-4_P2456l1Zn0p4ru7S-noAiDuYo&quot; width=&quot;602&quot; height=&quot;207&quot; style=&quot;margin-left:0px;margin-top:0px;&quot;&gt;&lt;/span&gt;&lt;/span&gt;&lt;/b&gt;" style="text;whiteSpace=wrap;html=1;" parent="1" vertex="1">
          <mxGeometry x="160" y="-190" width="800" height="300" as="geometry" />
        </mxCell>
        <mxCell id="iJ1C_qz70vdLPiYAmIDf-7" value="&lt;b&gt;Y&lt;/b&gt;" style="text;html=1;align=center;verticalAlign=middle;resizable=0;points=[];autosize=1;strokeColor=none;fillColor=none;rotation=0;" parent="1" vertex="1">
          <mxGeometry x="460" y="1710" width="30" height="30" as="geometry" />
        </mxCell>
        <mxCell id="iJ1C_qz70vdLPiYAmIDf-23" style="edgeStyle=orthogonalEdgeStyle;rounded=0;orthogonalLoop=1;jettySize=auto;html=1;" parent="1" source="iJ1C_qz70vdLPiYAmIDf-14" edge="1">
          <mxGeometry relative="1" as="geometry">
            <mxPoint x="670" y="870" as="targetPoint" />
            <Array as="points">
              <mxPoint x="647" y="3100" />
              <mxPoint x="-41" y="3100" />
            </Array>
          </mxGeometry>
        </mxCell>
        <mxCell id="iJ1C_qz70vdLPiYAmIDf-14" value="&lt;b&gt;&lt;font style=&quot;font-size: 14px;&quot;&gt;REPEAT_START&lt;/font&gt;&lt;/b&gt;" style="ellipse;whiteSpace=wrap;html=1;rounded=1;" parent="1" vertex="1">
          <mxGeometry x="574.45" y="2890" width="144.5" height="140" as="geometry" />
        </mxCell>
        <mxCell id="iJ1C_qz70vdLPiYAmIDf-16" value="&lt;b&gt;&lt;font style=&quot;font-size: 20px;&quot;&gt;1&lt;/font&gt;&lt;/b&gt;" style="text;html=1;align=center;verticalAlign=middle;resizable=0;points=[];autosize=1;strokeColor=none;fillColor=none;rotation=0;" parent="1" vertex="1">
          <mxGeometry x="223.75" y="2305" width="30" height="40" as="geometry" />
        </mxCell>
        <mxCell id="iJ1C_qz70vdLPiYAmIDf-17" value="&lt;b&gt;&lt;font style=&quot;font-size: 20px;&quot;&gt;2&lt;/font&gt;&lt;/b&gt;" style="text;html=1;align=center;verticalAlign=middle;resizable=0;points=[];autosize=1;strokeColor=none;fillColor=none;rotation=0;" parent="1" vertex="1">
          <mxGeometry x="350" y="2410" width="30" height="40" as="geometry" />
        </mxCell>
        <mxCell id="iJ1C_qz70vdLPiYAmIDf-18" value="&lt;font style=&quot;font-size: 15px;&quot;&gt;repeat_start = 1&lt;/font&gt;" style="text;html=1;align=center;verticalAlign=middle;resizable=0;points=[];autosize=1;strokeColor=none;fillColor=none;" parent="1" vertex="1">
          <mxGeometry x="235" y="2918" width="130" height="30" as="geometry" />
        </mxCell>
        <mxCell id="iJ1C_qz70vdLPiYAmIDf-20" value="&lt;font style=&quot;font-size: 15px;&quot;&gt;repeat_start = 1&lt;/font&gt;" style="text;html=1;align=center;verticalAlign=middle;resizable=0;points=[];autosize=1;strokeColor=none;fillColor=none;" parent="1" vertex="1">
          <mxGeometry x="836.25" y="2918" width="130" height="30" as="geometry" />
        </mxCell>
        <mxCell id="iJ1C_qz70vdLPiYAmIDf-21" value="&lt;b&gt;&lt;font style=&quot;font-size: 20px;&quot;&gt;1&lt;/font&gt;&lt;/b&gt;" style="text;html=1;align=center;verticalAlign=middle;resizable=0;points=[];autosize=1;strokeColor=none;fillColor=none;rotation=0;" parent="1" vertex="1">
          <mxGeometry x="1096.25" y="2265" width="30" height="40" as="geometry" />
        </mxCell>
        <mxCell id="iJ1C_qz70vdLPiYAmIDf-22" value="&lt;b&gt;&lt;font style=&quot;font-size: 20px;&quot;&gt;2&lt;/font&gt;&lt;/b&gt;" style="text;html=1;align=center;verticalAlign=middle;resizable=0;points=[];autosize=1;strokeColor=none;fillColor=none;rotation=0;" parent="1" vertex="1">
          <mxGeometry x="990" y="2390" width="30" height="40" as="geometry" />
        </mxCell>
        <mxCell id="DQCrlzxfUJx0nf6Im-Hf-1" value="" style="shape=image;verticalLabelPosition=bottom;labelBackgroundColor=default;verticalAlign=top;aspect=fixed;imageAspect=0;image=data:image/png,iVBORw0KGgoAAAANSUhEUgAAAsEAAADbCAYAAACMY0ygAAAAAXNSR0IArs4c6QAAAARnQU1BAACxjwv8YQUAAAAJcEhZcwAADsMAAA7DAcdvqGQAAHLpSURBVHhe7d0HuCRF1f/x9vUNBkyAAQOCikgWkJwzCEjOcWGBJUqUDBIEyTmz5CAZBESCJEGyBIkCgiCCCioG/ub98ymmlt7Z6Zm5MzfP+T5PP/fOTIfq6u7qX50659R7JrxNEQRBEARBEAQ9xH/V/gZBEARBEARBzxAiOAiCIAiCIOg5QgQHQRAEQRAEPUeI4CAIgiAIgqDnCBEcBEEQBEEQ9BwhgoMgCIIgCIKeI0RwEARBEARB0HOECA6CIAiCIAh6jpgsIwhGOP/5z3+Kp556qrjooouK973vfcW///3vtMw999zFjDPOWMw000zFq6++Wpx77rnFP/7xj+I973lPbcui+L//+79ip512Ku68887ixhtvLD70oQ8VmoS//e1vxfzzz1/MOuusxec///nihRdeKE444YRiqqmmmmR7/88333zFMsssU/umc5T5D3/4QyqDcgVBEATBQBIiOAhGOP/617+K2267rbjuuuuKDTbYoPjTn/6URK/vf/GLXxQ77rhj8dvf/rY4+uijizFjxhT//d//XduyKN773vcWc8wxR3H++ecXTz/9dLHGGmskMer/F198sfh//+//JZHs//3226/Ye++9iw984AO1rd/hU5/6VDHttNPWPvUd5VQ+yxVXXFGst956xcwzz1z7NQiCIAgGhnCHCIJRAGvw1FNPXcw777zF0ksvXWy00UbFxhtvXMw222zFfffdl35nXZ1nnnnSOnlhLc6W3c985jPpuwUWWCCJ5bFjxyar7DPPPJO2f//735/WL29v6UYAg9WZWLewSP/xj3+s/RIEQRAEA0eI4CAYBRjQeeONN4onn3yyeO6554pXXnmleOCBB5KA/djHPpbWYdX1e3l566230m+wD2I3L/jf//3fiSL5L3/5S7IQl7fnhsFyXMZ+Hn300eK0006bbPnxj39cW+tdiGvCe9lll01W5rK7RRAEQRAMFOEOEQQjHO4EN998c3HAAQcUM8wwQ/Ff//VfaWFZZd3lBkEgc4v4xCc+kX6Dv3vuuWfa5uyzz04Cd6211kq/EcHXXntt8eabbxb7779/EtMbbrhhEqv/8z//k9aB//kKf/CDH6x98w58e19//fXap3f58Ic/XHzyk5+sfZoUItvxuV04ThAEQRAMJCGCg2CEQwTfcsstxe23356EboabAT9hglLA3PHHH1/ss88+k4jYKaecMvkFn3766cWtt96a3CeI4V/96lfFqquumhaBcffee29x4IEHFieddFIxxRRT1LZ+JzDu4x//+ERhnXFslud6uGTU+xRnQgQHQRAEg0m4QwTBKIAYZY0VpJaXz33uc0mgyuwA4rf8u4W7A4hkWR523nnnZDn2v22tkwUuAcuKW97e53oBrF/NcixbRf3CRSMIgiAIhgMhgoNglMIaK1OEgLl2IIhZeQlbFuOXXnqpePDBB2u/tg9BToAvueSSky1StgVBEATBcCDcIYJghMMd4kc/+lFx1FFHpXRnIHw92v5Ke/baa6+lwLQjjjhiEncICGy78MILk2Debrvt0ne2JYDvv//+5BIhRdoWW2yR8gFn6zEI3kUWWaRYeeWVa9/0HdkgpEZ77LHHihtuuCFlnJhuuumSa0Q+nyAIgiDob0IEB8EIxyNMwD7//PMTMzVwb5APmMuC7BCswr/5zW9SOrNG2RcEsdm2HLRmYg0ClXXYb1wc6psL+7INy2+nOA6RLQgvw0+ZEOazHARBEAQDQYjgIAiCIAiCoOcIn+AgCIIgCIKg5wgRHARBEARBEPQcIYKDIAiCIAiCniNEcBAEQRAEQdBzRGBcEIwyZFsw49tPfvKTNH3xNNNMU8w888zFF7/4xTThBf75z3+mzA+PPvpoWmaaaabiK1/5SsryIDODbA1mcJOh4frrry9effXVlG0iIyvE6quvnqZl7gbNj/KaplnZ6ifeCIIgCIKBIkRwEIwyTJ985513Fp/97Gcnikzp05ZYYolihRVWSHmF5f+VW9iscPL++u53v/tdsfjiixfzzDNPEtBSqi266KJpBrm55547iegMEUw0f/jDH6590zeUy7TKv/71r4vHH388pWBbdtlliw996EO1NYIgCIJgYAkRHASjCBbeY489Nk1q8dWvfrX2bVH89Kc/LZ577rk0ccYvfvGL4uKLL06CeK655kqWXxDFP//5z4s111yzeOSRR9IEG4TzCSecUKy//vr9OnEFyy8B/PDDDydLtAk8ttxyy5TTOAiCIAgGg/d++21q/wdBMMJhUf3Zz36WJrbgBvHBD34wfe//WWedNVlwWYF/+ctfFmuvvfYks8d94hOfSJNpsO6+/PLLyR1i+umnL+66667iIx/5SLLemlTDwjXi/e9/f23Ld+B68YMf/CCt/9BDD01clGf22WefZJIO/3N/4IZhog+uGXPOOedk+wyCIAiCgSJEcBCMIlh1CdcHHnig2H///ZMF+JVXXkkLIUx4srxykVh44YVrW70Dtwhil19u9gm2r+9///vFvffemwQtgWsxE53fytiOOwM/4c9//vOTLFNNNdUkIhiEtO9Yn3//+9+HCA6CIAgGlYhCCYJRBkvuuHHjissvv7zYaqutkrX3e9/7XnHmmWcmay6R2pcANNMi77DDDsWhhx46cZlvvvlqv74LUWuaY+uXF37H9QI4CIIgCIaaEMFBMMq47bbbknuBQDYBbRtttFGx/fbbF2+++WbyxSWAWXkFppXx+be//W2yEpchbgnZT3/60xOXD3zgA7Vf34Vbww033FBcdNFFkyzEuOMGQRAEwXAiRHCP8/e//z1lAfjb3/5W+6ZIYokfp6h9qbbKAkYWAf6kfE/L/PWvf00BV/XfwzaCrAgzlki+oxGPOXBwL+C+4JpyjyBi1T13CAJY1gi+wsRyvu4E8N133522c090gn3KLCGYrrwsssgiYQkOgiAIhh2j2if42WefTUPBOTcqvPSljzJMWw4KIsoIP8O5OVqeGCQofPfWW28lcVDeVyuIP76OjaxmzSA6iRY+mAKcWO34WiovMfHnP/85Wev6UhY4B9a6cnmcHzEk3RWfUMe85pprUl089dRTSQjLKsD/833ve186rmF169uP8qg7+7nwwgvTMLn9lJGxgJi2HrElM4FAqXL9B/2H+/WJJ54ofvzjH6eMDzIwuD5LLrnkRAHsHuc3fMcddxT33HNPcd9996WOzIILLpgC5HR03C+u+4MPPljMNtts6Zlphn3K7sBqXF6mnnrqyUSwe9zzKZPFLbfcMvF+85f1mnAPgiAIgoFkVKdIu+qqq9ILeIEFFpj4UvVC33bbbYt99923WG655ZIQ80Im/giBzTbbLIk71UKIsm4aVr7xxhvTC52QaBdppuyTX2a7KIsynnPOORPTRRHfBPUee+xRTDHFFMV1112XhEpfymL7W2+9NVl9DY+DoL3iiiuS2BkzZkw69u67715ssMEGqd6g03DWWWcl0SpNFkvveeedl4St/Qhksp2MAyeffHJKpyW4qoy6dCxCSFDW8ccfX5x44omTrRf0H3L+sr7nzlIOWMvPgesoy4NJMFwfz4F7KgtWnSXXmH+x/fi+r525ZjimTiYhXB49cD/JYpE7okEQBEEwUIxqSzCrI0uYXKiEgBfvzTffnP73YieOWS29hC+44IIk9Lz0iU5WMb+xfvos9RNEuvvONl7irLRZRJStXb4jOlnkWNHsKw9LZ4Hhc32AEtFCTBLOSy21VLLMzT///EnUPP3002lImyC3/1wW+7JfZSFosyWWxdjiXPxuEgXnbfYw26kf1kKdAdZDxyCKV1555SSYiHBR/epvxhlnTNs4RxZBFryvf/3rEzsMLL06HUTND3/4w2R5NPsY0e7YArPeeOONJKhvuummVC/ORUquoP9h7XWd+O8Stx/96Ecnudf879rI8uA6WMc2rq/FtXZtiVGdlf622udjuM9Yp/OiPPXPRBAEQRAMBKNaBHvxC8oxvOpFTnwSxeuss04agjV073ti9sorr0yi77jjjkvpofhHEo+XXHJJ+p7lkmuCl7fcptwErr766mTpJei8wIkKv2f222+/NOTMJcKwMtHJwsvS+9hjj6WXvZd+2eqljKapJToJBOdgv6xjRLqymcErl4VbAvcO1mHWWKIWxDy3BYFJrNmEs3N+8sknk9CeZZZZUnkIdRMoKIvOgQkM1JFzJ/QJa6JaORzPYj2CV/2xjmcRfPbZZxerrLJKsiQrpzLqAOhE8DVVJj6jxPbhhx9efPnLX45h7yAIgiAIhoRRLYIJO8O9hNwXvvCF5HPIHWChhRZKf1lNCVpClhBlmSIkd9ppp2SBJd7kWWUZZQlbaaWVig033DAJRBZNU8wuv/zyaR3T0pb9XIlFApuF9cADD0xCVmopwm+TTTaZ6J7g+MRhhuBU7ixeHYtIJ1wJzux+kMtiSJv11ixf3/jGN9JxTjnllDTdLcuv/X3rW99K588ySPzuuuuuaT/EO7Ga3SrUgVnG1Bkx/dJLL6W6sUw33XTpXOD4/EhnmGGGZO0lguWh5Xu61157pQ6B440fP75Yeuml0/pcQ1iVdSjUF+HN8hgEQRAEQTAUjOpxR2KSSM1WXaKSMGXVJGAJQAJO4NfXvva1JCAJWVZX4q5KpBG8AoeIUxZOFlupocoZFuohuh1fefhnLrbYYkkIs4qWIUS5GfDRVR7Huvbaa4uDDjooTVJgmzKsskQ9qyuXDsI3+1k6Vy4fhCfxW291JfotGXWho7DxxhsXJ510UnLJUBadBfvNEPiG2csW7PwdcQ1D6azKZX/P0YA6YkEn6rnI6DTpNBD6cL46Jn3F9vWZOMo4rmvPJcZxdWCMGvi+PxGYpvxcV7i0wP/ubcdSxhdeeCF9P1JxHvXPXbvY1khOEARBMPIZ1SKYMONzyhrq5e7F96UvfSmJQd8TcQK1+KzmbBFlq2wV9mebPHuWfbCKNhvaJwoFFxHmsA+WZv68ZYgg++Q2sM022xSbbrppCtYzu1cjoW0/RD5xxLVimWWWSVZj+yFIq4KZ1A2hXxayRNYxxxyTRI/viVrprQj38nrQqSgLsCwssojji8xynM83ozyOPVIh7NWRDBfcULjEHHLIISnDhmvJ3YRlvi+oOx2kI488MnU4GqHT5Tjnn39+stIbKRCE6Pv+hO828UvMux+yP3c+Tv5+pKL8npXLLrus9k3fcH9zMwqCIAhGPj0RgcInmM8va6ygMLDyEsReaMSiofoqCE1WWRAsBLP9yDLBtYDFlKtCveDLfrS2Yf31As3WO37CRHPZEgsvaQKLBdj/RKPAJUFwRLT1c1nsz3qOu/XWWye3BtbfRiLTd1ngO77Fd0ROFq7247z4D9svFwcCn9Djo5xRLkKJhTljf7bhK8xayNWDIM+WYTieOncc10K+4JGEc1Qf/Lt32WWXYrfddkuuM6uuumrKLkIg62yxxLMO6+SoW3VsEgqdBJ0H37Em+47V1V/imTVfndcLYfsydTFr/nbbbZfuuW9+85vpnjBKkO8p9ekYPjuG77gCudcs9s3Fpbx/61hfGXR+bK8T5fkQLKd82W3GyId7KGcOsa1zs42/WRzrqDme8qiTl19+eWIAaT2+s36uB3/L+7G9xf5yh1EdEuXqRZncjxnnkusgf+/Yuf4FhrLi52vkXHM91Z9Hxjrqxj7sV1mCIAiCkc+o9gnOeHELkBNExg2BGCNAvdCINu4Ec8wxR3KL8GK0jhejly//1RVXXDG9+AgIIpT44zbgd/sSSEYY2EfZGkw8s9qxiGbrseFzL1ViysuWhbfe7cLLn6gilLy0vbBZgZdddtkkIglIZSEwCXLHIH6Vh1hSZsFphKpyEbAsuc43++Zmsew8iGznRJwSWr5TX8oqgI9LBLcKlnL14tg5wDCLXCKCIFE2AXjqnI+y4zhPAoOlmnAjFFnjdBK4kowUiDDXxXVUT+rRtWNRl0FDh4VPtDp2v/CL1iG49NJLk181i737yyiEIXW+4lwLXD8uDoItbcenulwvfK1dBynpXE/HcVz/61zpgLkmrMT2S7Sqd/edY+voOY57g1XX9VBeEMbnnntu8vFWPosJLpTTPUdI2t6zwfXGvZFz+RKip5122sTyufcd076OOuqoJH4FebK6uhfzPVTGPeM4srZwLZK32H3hvlYn/NsFl9reObtPdRIFqqovFnTr2kYnjBXeSEquA3XDai6biTrSORNEalsi3fNk1EIZXQfn5jx0ADwznkX7kzv7Jz/5ycRruN5669XOIAiGL+5t7xDPrs6v51gb4z3mPaR9ysaaIOhFekIEe5kRa/x+vTAzRJ+X9pxzzpkEDdGpcchWT40EixpxSwx4cXop8hsmcLz8iQ5uA6uvvnqy0NY3JgSsly/xJ1hNo0NAKtNqq62WBFSZbI0lDryUiQsCkjAhmIlpZchlkX1B2bzcHUdZiFo+z8pOTPkM50NM2Df3DWKKhY94yKJIPakPwp8bhPRp1s3ixbHyZBdZ9DtnYmOFFVZIC/E777zzJoHmNw0w0ehcnZ+yqYuRJIDhmjkX/tEEm3ok/r1oCC71mQUZH2730hlnnJHqVqeE4GK5dS8Q0twpWJJ1wvzmZUXcubcyriERqAPDsl5G/RLMLM6s0n6Xy5k4JdgEdzqGDhfXGgGZngFZPARS2jeBS/BxuXFtiFH7IZTdG+4D58nyLGUfgc8S6x7hjqGs/NfdW1LfyanNmkvACtzcfPPNk2Dm1mPq5vLIADxD7nPHt39lMBJh/wQwsWnExX3mPP09/fTTk/gWdOm46t2iLrnvrL322ulZ8OwQ3q4Xsbz33nun58V9q+4OPvjgJKrty/PvGqkTQtz1cE1Z510z9eo6+Y2ICBEcjAQYJDyX2hwGHxMaMW5oly1HHHFEaic8P/XvriDoBXrCHYIFiUgV8FaGZXKttdZKLzwQdgQcNAhe8F7eXtxenKx8rHEaDI2KIXF+nFtssUUS0/WNCFG8ww47pMUx7EfQGaFjSDsftx77ISa9pKVD23///ZMVOAvRcllYXA3HSzlGeI0bNy79T/jaBzGRcT577rlnMXbs2FRe+7OvLKzbgTWUQCKUCMJeQ3YP9acuiVaiyOQfLKyEahnXkbAjrFgaWSAJMxYZgjoHYbqXiLJG2Aehll1g6mGZ17Ei+og095j7gcVWh8V2RjaIPwIy+8IjB2sSdNbTOcmdoVbYlhWZOMzb6kTm0RE+7QSpe4zIrn82Mu5T67Ie61zpXDgX+9QZ1Wlj4VZmKfnUBaHNB5sF2TOsk6YOdEjdx0S1etB5gOdVp0wnrP6Z4+KgQ5kt2Do1eZQHOrGujWM41j777JM6N0HQDELTMzKU6DQa2dDB0zHX8c7vQe2WtkPb5HnxfxD0Ij0hgoPGECZStBH+9cPUVRDMxHczYTOaYWVVVzo+W265ZerUSPdmmLH+paeTwHLKKquuWFxYiolTZB/tZtjOflhjG+F3gtH1YEUFkUbMebERvvXW14zzsG3GtbW0A2GZfYORO1Iss/B7OxDOLLWEL19rrjc6WspMYBPt3HtYfwlf1llWY+fm5W1iGa4Pju87Ipr7AreVPOrjt6pOhjogBGxjIV4cI18b55HPRV37rRfv+6Bv6NAZRRhKjCBySfIM6TzmuBGddaNwnl+/eVY8A0HQi4QIHiEQFwPRWycCvNizdbAV1mNZyIKr1yBqiTaCT90Rn3Ioc0MhtlgU1Y1rlS2tXBFYYKxXVW9lcVV/nR2DKBQ8l19WhDS/akOd9sm6TPiChdpLr5VYy76ABLZjcuvI+8g4bhbR5Rel8ipD3paLgPNvV/zCdiytzo91nSWb4M/ldgxuM6yv3DeIXnXq5c1Vx9TnZlMkXt2Xvud+YZRFnTcaaVFXXHccw/Edw7VzfCM7Rm2ymw/8zv3D8+f8dYJCMATNIDKNJBidsNQ/z4OFETvHzs+U/6W+ZBH2PGkjiOB2RwGDYDQSIngEQGzw+Y3GaugxFC9TAN9ZYtgQuuAvFlXiirsEIUkse/GwyrJU+mw9wrUe63kZeUlxl8hD8RnD+H6XpYM/OWunY/ufSNMpMdwvCI5Q5MPKDzcLuSoIQuuxshoelUFFOct4URLL3BKcR7ZiE53OlWuPe9NU2dwF+uLn7bxZawWocUlgMeevbBgXBD6XB0O6jk+IKrNyEr7qSsCfeiPUWbnUCQuc69Po/JWbfzphyx+ZiBcwy50ll0GHIot552QbgXH8q7ka5fIFQSPcm1xxPFcHHHDAxGdmsMn3v/vViIsJnuSS11Z5lolhbU3u5AZBL9ITgXEjHY2oHjwfy2iwhhaizdB6FqKCwAhF00Vnv3A+pYYhWX6JZkKOiMtiV7AWP3UWmhyE6TdWTpYjYjoHM4LFmVWT2BPo4gVmXVZQ4pcFlpglFglSllWZO7zsiD3lUw6wYhKdAuQckz8yKy7xaF2Cmw+xc7Rf7jIsW/YNVlMWV/vjJ+slqkyEIv965+ela1viEo5pPUF2vi9DbCoP8S7rgm0cw7kpjzomKuzT/glvnRCilJuEeuSOoty2UffqQOfArIr+6pSU64CQVofq2vmrC3UgIE+dCAblmmE99eC6Kp86EIhoP65hEDTCcyEYVUDnjjvumO6joYAIdp97dpTJPczNx/PsOXSPe+69Vzx37v0g6DXe8/aLNTzihzl8JA3Vsip4mQdBEATDF37rfNplMBlKdOyk9ePuo4NaxqiUwGvT+RtNCoJeJNwhgiAIgmAUwsorgNfoUj1cl/jbhwAOepmwBI8AwhIcBEEwcihbgqXh4x7B7Ub7zeecO48ATFZar2CuCFyKuPAQrNaRUpHrD9cFrkFccKQw5OYgtzv3Bn7w1peNgpsD1wuiVuAbd6sgCJoTluAgCIIg6Gf44gpmJmAFcObAZkYN/uXiCfj7SwvIh5+/OfcFApgPvcwycon7TRpLs05KJShGxO95oiP7sI5c4GIDTMJU73sfBEFjQgQHQRAEQT/C1UCApowMUpXJQiL7iGBOWU0IYQGjLLeCQwWsEbCCTll0CV0La64AV0FsLMkCbgVxWmfddddNQljWlBxoa7G/CHILgvYIERwEQVt4aXuRB0HQHBMKyaySxShBK00Zq7ClEdbNFlxWYe4RZfxmHTM1SmXICswyLNVfeDUGQWeECA6CoC1YtKRUCoKgOXl6dbO0EbNybbPkClSTyq8+bRoRa5IbVt5GM0lypZDNgaVYHmzT1st3bYp0+atjApcg6IwQwUEQtIUXNX/FIAjaRyAbl4Zs2SWAiWIT6bDqmqjlzDPPTBNsmCGRO4Np2Pn6ypM9fvz44owzzki5frlZELxzzjlnykNObMshbj8sxeELHAR9I7JDjAAiO0QwHBDoI6/onnvuWfsmCIJWcIXgt8tflwDOnUki1/cZv5kMicsDa6/ZCn2XXSqIZkLac+h/2JfP9kUcW7fRTIlBEDQmLMFBEARBMEAQrsRtdoEgVAWysdqyEOelHNBmxkhuEWYszL8Tt37PAhj5s2MQwiGAg6BvhAgOgiAIgmEEAZwFcRAEA0eI4CAIgiAIgqDnCBEcBEEQBEEQ9BwhgoMgCIIgCIKeI0RwEARBEARB0HOECA6CIAiCIUaKs/7IWNpf+wmCXiBEcBAEQRAMIaZUvvjii9MkGd1yxRVXpOmUgyBoTYjgYYwe/Ztvvlm8/PLLxV/+8pfiV7/6VfHqq6+mKTSDYLAwWcuf/vSndC96Wf/xj38s/vrXv6b7MwiC7jFpxg9/+MN+EcHXXXddmmwjrMFB0JoQwcMYYvecc84pFl544TS15lJLLVWst956xc9+9rPaGkEw8HgxH3HEEcVee+2VXtS77757sloRxUEQdA/Bqr3/17/+Vfumcwjq6KAGQXuECB7GmEHoC1/4QpppiAXujTfeKD7ykY8UX/nKV2prBMHAY2arm266qRg/fnzxwAMPFGeeeWbx4osvxuxUQTAMWXTRRYvpp5++9ikIgmaECB7mzDTTTMUss8yS/jf3/Nxzz52m0gyCwcIL1WhEnvb1U5/6VDHffPPFfRgE/Uh/zRA3duzY4stf/nLMOBcEbRAieJjz+c9/vph99tnTvPDmnydGgmAw8TJdaaWVJorgGWaYofjSl76U/g+CoHs8Y1NMMUUydHSLd0UI4CBojxDBwxwNGqvb1FNPncTHrLPOWvslCAYHL1QdMdYlHbG55porRHAQ9CME8L777lsstNBCtW8656GHHkqB1EEQtCZE8AiAC8RnPvOZYuWVV06NZRAMNu67ddddN41MLLDAAqlzFgRB//De9763mG666YoPfvCDtW8658QTTyzuueeeyA4RBG0QIngE8NnPfrZYbLHFilVXXbVfhsuCoK8QvWuttVbyT59nnnlq3wZB0B/I5iAN4b///e/aN50jfaEMEUEQtOY9b/cWo7s4QGjQnnzyyeL++++vfdMZLtHzzz+fLAURkR8MFe7nH/3oR8UxxxxTfPrTn659GwT9g/RgV155ZfG73/2ueN/73lf7tjdw7k8//XTxuc99LmUA6oazzjqr2GGHHYq11167oW/wa6+9llIdyjgk80svoQ2T93y11VarbMPUzyWXXNIvo64yOXEf40YWDE9CBA8gqlaDboKLIBjp/P3vfy8222yzYs899yw22GCD2rdB0D889thjxamnnlosvfTSxRe/+MXat73Bn//85+LAAw9MAahG/bphxx13TFmFTjjhhORmUc/ll1+eRLCRHZleeom33nornb/RLO5djTjvvPOKhx9+uNh0001r33TOVFNNleo4jFfDlxDBQRC0BcuR4MxVVlmlOPjgg4uPfexjtV+CoDt0sOSfZqXbfPPNey79nlkYt9hii2LjjTdOsR/dwAL8i1/8Ilkz5ZkvW4N/85vfFIccckgx//zzF2uuuWbP+fZzO7n33nuLq666qthpp50mswb/+te/Tp2RcePGFV/96ldr3wajmfAJDoKgLbxMWegM3Zo0I2alCvoLou2FF15I2REi+Lc7dtlllySEL7rootS5yHheH3/88TQznYxDvRjcKs2jLDcmotKGlWfo8//3v//9lBe910YiepkQwUEQtIUhPUOtspWwpvzhD3+o/RIEncNPU9zEhz/84WK22WaLHLddMu+88xbrr79+ErzPPvts7dsipU274oor0u8sxL2KdKNzzjlnyqBRdlV8+eWXU3q5BRdcMDpiPcR7v/02tf+HNYbJHn300eK6665LU7gKOPvlL39ZfPzjH0+9Og2p1DB6crfeeuvERSCPIItppplmMv8ofljXX3992pfeX6R9CoJqWFH4GnrmPFf83QRrBkGn8Mb7/e9/n4K51ltvvWLaaaet/dJbsNLyVzUE7/nqBtZf70Si94knnkiBWeqZ6LvllluK7bbbruvgu5GOtos+oA24eNEP11xzTfq83HLLpfoLeoMRYwlmKbjgggtS6hcRl16+nNf57zz33HPpJj733HOLOeaYIwVWWJZYYol0U++zzz7FXXfdVdvTu+j5ufH5B/32t7+tfRsEQTOk7DN5xp133hkuEUFXGJq/7LLLUh50VuBeRfYA1tsZZ5yx9k3nHHvssckCzLWEpfOZZ55JgljQ4YorrpjqutfR0Vh00UVTx0Dd8JVWT9xEppxyytpaQS8wYkSwaNYNN9wwBQ6IoF1yySWLrbbaKkVe6tFlDGUQvxZC2PCtB1+k7I9//OPaWu/4/zz11FPJQqxR+NnPfjaJf1AQBJNiNOakk05KbhCeQT6cniEd0CDohFdeeSX5rspU0GvpuspwAWF9zFOTd8MjjzxS/OpXv0qjm1KuMQAZQZU/mK9wo4wRvcjyyy+fjGq333578eCDDyaDGVevcMfpLUaMCPZgazD5JXJbsLBIffOb32yaromfmWhjliv+UBnRuPa5+OKLJ8HMjcJ3QRA0hti98cYbizfeeCNZUpZaaqni6KOPTm5FQdBXjCLccMMNxTLLLJOm4e5l8cEAw3WhP95B6tViYiXWYBZOo6SMSL3uBlHG7HwMZVKiuQ9ZhnstK0kwgkSwnH6XXnppccYZZ6RhWNHEXBj4OrVyYpfKSUoYQ2+ZPESkkRAoYDhEIxTW4CBojGeN5cQLlsWK75zniK9+EPQVbbjgrTFjxvT8TJistEceeWRx33331b7pHp0KPsZSG7755pvF17/+9bBy1sH9wbv/xRdfTBoh6D1GjAiW05AQdrOy6B533HHFbrvtlixRLMR9wcvc8NDCCy+chqCIaDPIENmCE4IgaM1HP/rRNHFGHmoNgnZhbOALPOuss6Zcrb0uzryT+mu643JdGrVh/PFdjHRODkOYTr0RZtNWB73HiBHBLAV8eCSzkAfRbC45KbiXcLtobExPaXrOQw89tFh22WWLFVZYIfk6GhIxa1EQBK3x4uBK5Jkq+9sHQSv4kjNeLLDAAuGj2s/MPPPMKdYF/IGzr6t3HsEXvItR5VlmmSXVWbRhvcmIEcGbbLJJcvbn4yuNjjx//Hm4MkiV1ozXX3893eCsvoJ7rr322mLrrbdOrhXHH398Ws4555xim222iYj3IKiAC4Rnr+x+JKpdMKq0hWFpCtpBCi/tMT9gExcE/YsUaIQdd0EiWEfV++7mm29OI6k6rcE7s8PdfffdqW5WXXXVNHmG74LeYsSIYA7rcpOWhywM9WhQqxJ/e9itc/LJJxfPP/98sc4666S0aD/96U+TewV/KY1FXliW/S7qPQiCSRG9b7rkbGVC9jv0mzSG0YEMWmH0ziIeIwKR3sFzpHPZHxky5MAVOM7fmj8wX1fvSAGIF1544SSzyPUqgnzz7HDyBEtNx0hWP4tcMPoZMZNlSPWiJ6unpjcrpRlrgnRNBK3GdPz48akh0cAKctMI8POVT3jXXXdNQ29SrYlsZ72qb3AM77700ktpe8NH/ZGuJghGC17UIqrrnwujM7/73e/S8ybXaySaD6ogPridEWerr756TFBUwvuHjzRf+274+c9/noTu6aefnt5jsrioZ+/Q888/Pz2jn/jEJ2pr9yZGj2kDqR6NSGjXBA8KTDQhUGTR6B1GjAg21aGb1exChKq/Js1YZZVV0hCtFzS/YZZfw7J58UIeO3bsRFErSEDPWMYI25TRUGgciGP7DBEcBO9iZOW1116bzHrnOfHijlnkgma4fxgtGCtMDNGrs8M1ggD2PutWAMMrnbFIfAvXCPv0ruMbLPguzyLnmL0Il8hGs8Npu8yo5zOtEe//3uA9bzdM4SAUBEFLWJeMqMjKUi9guEGcffbZaYaqvfbaK14gwWSw/spXm++RXk+LNlBIhcYfeIsttkgGoHLgoYDEM888M8XYyJ3fiwjIFAckIH6xxRabxBgm8xSXiD322KNfOiTB8CdEcBAEbUHESCVoWlZWq3rk25Qybfvtt0/W4F4TwnnmvMh20BhD0JtttllKbykGo34krpfxbBmeN0rZ7dTJa6yxRhoF5T5oxLOMkdBTTjkl3aNiYAS29hL8fc0wy51Sh54rVxmW8v322y+JY0u3GFVmcY57ffgSIjgIgrZoJYJZg/kcGlLkftRrw60CaokMgTa9OtTcDPEYrHBmLgsr8KR4ti6//PL03EjX1Q1GZFZcccXkFlHfEfW6F8BqljT5mXvN99VoFncQcw5Ij9oIPutXXXVVv1jKdfZMyBFxEsOXEMFBELRFKxEMyedNR87C0mvWj0suuSSlcTQMXW9hCoriqKOOSveEkYIIiJsUU48fcMABKVDLVP7dsPfeeydfYNkgGj2DfGKfffbZJAh7rbNmtEY7xie6qiOmfsyC2R8dNUH4lhgdGr6ECA6CoC28PET0H3PMMZUiuJcxzCyzDJeQKaecsvZtkCHOiIF99tmnX1KBjSa4L+g8bbzxxsXKK69c+7Yzrr766mRRlg0iCILmRPRKEARtwXq35ZZbRlR/Bfw5dRIi921jzPjJXzVcRQYWIjoEcBC0R1iCgyBoGz6vAj2CyTGMihjqb8w//vGPZAmOoeHJ4Q7Bh1fKz0UXXbT2bWe4D3U0IhgrCFoTIjgIgrYR/BbpzxqTZ8uL+mlM3DvVqBsTzsjm0K2riMBUszjKrR8EQXOiRQqCoC0ElZil8a233qp9E5QxNbvI80bTrrI1SL802m0OrJBV085KS2U2s9xZCN5F5+CTn/xkv/hKmynOzGdh3wqC1oQIDoKgLQxnH3300Wmyg2By5B+VIUKGDAKEGHz55ZeLm266KSXnv/766ysF4mjh7rvvLg477LCUDk2mDB2nLMYEbEkDlvMpB+/ivnj66afT1L1BEAweIYKDIGgbaZWy72swKcQdn2lC5gc/+EHKErHWWmsV48aNKw4++OCUOm60C0DW3u985zvFNttskyZj2HHHHZMg/tOf/pQ6UTKMhIVycoyunHrqqcXDDz9c+yYIgsEgfIKDIGiLdvIE9zInn3xycfHFF6f8omZHe+2115JVGAKV5p133mKhhRYa8OwIOikE5wc/+MHaN4PHgw8+mGYqy5gkwDC/WdC4g5iFa999940UaXX0Z4o0nQ/TIps+OYLjgqA5IYKDIGiLEMHNIYIfe+yxlCqNRfSOO+5IU0kLeCJGtt5662K33XYb8OwamnTLUASh8UfdY489ktCXK5kAFqRlAoif/OQnxTTTTBMiuAH9KYJ33nnnlKpPhytEcBA0J0RwEARtwRVi7NixaWarL3zhC7Vvg4ypaPnBbrvttmk62l//+tcpkJBllL/nCiusUOy6666jesrgc889N02mYupfwnfBBRdMU8cSY4ceemg695gxbnL6UwS/9NJLxWc+85lIRRcEbRAiOAiCtuDPev/99yfL3vvf//7at0HGbHE6CjPMMMMkLg/8PZ977rmUFWG22WYb1eKEG8hvf/vbJILr3TFYyVmAv/zlL0eqtDqIYBPRbLTRRl2L4CAI2idEcBAEQRAMIQIqjRjoYHY725t9sbiHK0QQtCa640EQtIX+sij/yPPaGOJjJGc/EFB3xhlnJGu/Gcz8f9lll6Vr/v3vf7+49957u7r2LOLqJ5gconWZZZZJbgzdIhPJT3/608jCEQRtECI4CIK2IJKOPPLI4vXXX699E5S5/fbbi6uuuqojoUdoEp5DBcEktdsNN9yQ3DXOOuusYvz48SnAjwuD8t14443F73//+9oWfYegvu6660Z9ruROYLXlJ90fbiLPPvtsCsgMgqA1IYKDIGiL7BPcjRAazfAJZoFjEe4rBLSJJoYKHZw777yz+PSnP53Smk011VQpoI3llzATCPnGG2+kTBedYrY4fsExkjA5UtqZ5Y0/dbfo0IQVOAjaI0TwIJAbpVhiGelL3M/VSzeYWe6VV17pej+dQgTL8Uv8yum74YYbFp/61KdqvxYpyE3O404E/kim/hoP1JIny9CJGkk0OpeBXFrRzjr9xXArT9AZERg3gBj2kxvTEGMQjHTcz1dccUWx9NJLJ7EUTAoBQzgecsghffLttJ2sACyuM800U/G9731v0LMnmMjCTG+Oe+CBB6a/e++9dxqm32+//ZIF19TPO+20UzHnnHPWtuob9me/IyVPMMF/xBFHJPE/0NfDscwyKH3cdtttV/u2MwZrsgzuM66pvNcDnfIuzza4ww47VOYoZ0X3vl1ggQVSfuqBxKjGk08+WSy77LJp5KQRjz/+eMqWIl/zRz/60dq3wXAjRPAAomo1FIYRg2CkI/2X6XD32WefYvrpp699G2QuuuiitJxzzjnFfPPNV/u2NXyBcw7dNdZYo5h11llrvwweRIbpja+99trixBNPTGU57LDDkvj75je/mYLiBMeZAvpLX/pSbau+4b7hb0w4DXcRrO1WF1xUNt100wEvL59rwpWAO/zww1Oe6U457rjjUkdVmrqBEsHuFz7iZkjUSRpoEex6nHTSSenZ0GFsdD3k4nbuW221VcqyMZBcc801xU033VQcdNBBaVKYegh2k+cwFqy33nrpeQqGKURwEARBK94WwRN23333Cb/+9a9r3wRlrrrqqgkLLbTQhLdfxLVv2uftF/yE8ePH1z4NDX/84x8nvP3CnvDAAw+kz28Ls7T885//nHDeeeelMvrcKWeeeeaE888/P+1vuPPGG29M2HbbbSdcccUVE/7973/Xvh04/vCHP0xYZpllJiy33HITbrnllq6O+Ze//GXA6/iVV16Z8LZon/B2x2lQ6gc/+clPJuy4444TXn755do3k/Lkk0+mMj344IO1bwaOSy+9dMJmm2024fXXX6998y7/+c9/JjzxxBMTdt111wmPPvpo7dtguBI+wUEQtAXry7e//e009W0wOSuuuGKyoj711FNpaPbt9rX2S9+wndnm+IlCQKKhVxNuvP1yTYuhVta4MtYzTJvXkcXjhRdeSOu+/TJO370tttK6jmF2u3Ig1hRTTJFmLMvl/tCHPpQWQ/Wf+MQniiWXXDJ97pQNNtggLeWJRIYjAvcMq6sHk5sMtCsEHIMvNsuhAMV8nTqB//ZA17H6UWZp3QajfsBKzq1guLsXel7uuuuu5JLBGh8Mb0aMCOaP+Mgjj6TUPfy0zjzzzOLqq6+ezNXAeoZFDEkaYrTebbfdlnze8u+nnHJKGn4KgqBv8P8LGmNI2DAsdwFtDPeRTiDCDDW/+uqr6TMxrM2Tfo2glf5KW2iKYv6qjmORnYKAsp0gu4ceeih95zPh8Nprr01M36YdvOSSS1Lb6H9wVVh++eWLeeaZJ33OEMfLLbdcpS9mu7h3RsIEDrKfcINwLT/72c/Wvh1Y+JVuvfXWyedVx8X17bQTRaB2k8WjFTpOpgM3zfNgCeCM2fS4IejAdVo/A4kymbb6Rz/6UXqWhnuHLxhBIviBBx4oLrjggtToTzvttCkAxXcSg7OQZPi1HXvssekhmW666dJ6t956axLDXhSsJf4fypycQTASIc5efPHF2qegHpZXnfJVV101CVb5WjtF+yRjA9Q7AavtmmOOOZJFdoUVVkjiWOAN0Sb2QJvHgrjooosmn1AibsEFFywWX3zxFKhnOynQ7IfQ+tjHPpZE6fPPP5+OM9AQ49rv4QwRw5KvvtXjYE0PTiyxGs4999zF7LPPnoRsp50oBiD5nQdKJOpQscgq52Bjym3Web73nosyOllf/OIXiw9/+MO1bwYOVl5xEfUiVydTgKMOo7IGw58RI4I9eOuss04KHlhttdWSZUJPlFO6XpcH3pChl8+YMWNSr1qQifU40usZE8NBEHSG4XeZA0IIN4b1Vgc7uxX0ZWIIVmTWW24L2rI//vGPxfXXX58EjWwR9YKGW4JMEoSSIXSCljhgIBBAZMSM0G1kqTNcq50UvEfkcb0gjAcawuXss8+eKO6HIzoW6p0YlRt5sHB9dXz89d7i1kKM11/3dnDvdDJhSzuwcgqSHMwOQhkW83XXXTflK1dHZXT0BG5+/vOfr30zcHzta19LAXie9TI6lDowY8eOHfBgwaB/GDEiWBohwzD8Ei1uMDe7lD3rr79+asQvv/zyNJTnZeDFkNfTmGlY+LUFQdAZXsgEExEVTA5rrM4265AOus4CUdsORBerrowMLFysWUsssURqt1ZaaaXJ3Ai0d1y6RJ3ndo6IYp2TzWDhhRdObabrVU92lzA5A3eJhx9+OFk+BxoW6258pQea7EpHXPF1HUwRQ3zLJsCC670mrZYZ+4bTs+ae4yYiJoDVerBdIeCYXFTc31x5yh0qz8HHP/7x9HegIcYdiwtRxv2jI7zIIoukMo4E159gBIlguQ+lY+EHd88996QXRp6+lVXEi4Mzuhuw3m/RS0luSy+aIAiCgcTLj4VIh9wIVjtCZq655kpWZNZSL1Yvey9abVu2NtkP664At2wU+NznPpesfn7z+ZZbbknWOp+rBAF/07322iuNmEl/Zh8xFfY7acpY0Vk5O00D1ynEnMlKdE5ceyLcderGN7i/0cFTnvnnn39Ig2M9F0Z4n3nmmUlceYyK6MzVB4wOBDotOpPlERSWex0o7lAhgEcOI0YEc4UghLk8eFEcc8wxxW677Zb8f1k7NBT88eRXHIoeahAEQcZLUDS7IDZtVl+wLaEx9dRTp8869Vy67E/blgPciFgWY+0eKyshbarj7Jus48930TZ8iTP8FY2K5Rf1vPPOm9wphquFdrBghWUZ52431O8QQ/uG1M8444xk4e8LRgf6O4CV2DNiwDo+HIxJ3H5YW1mms+sHUcp9yOyLA426yIGp0Ok0Eu1ZihHnkcWIUYsebCmI+CTuvPPOKQG1SFE9Lz5cGY1/vcN8EATBYCNIx7CxSPq+CBkCzMs0i2BtH5cv1i/LUkstlQLfsk8my5j/CRTBb363sGYaBWNZ5iaRRa8JB8oiz/A7UdHr1qubb745TRc9HIayXXPZBVg1+b/2BRkmdID68xyIPQFfOmfDYbZIaeCUhWU6xygQw9xZ+EQPNAxvAl+zz78OFO3hue3vDkgwsIwYEbz55punoSJRqaIyBXUQxW66HADCh45LRP3wIwsH9wlDiEEQdIahdaMvsq4Ek0OACtzNs315GbLeyl4zkBkYHG8wIuK7hX+zgMH6iPrhAIuiNJqrrLLKJH6eg4l3WBau/hKbpuWV8Yi/ebuw1DaaxaxTCHHvVUKYu+FwQXCa+16g3mC4QFRBfEtNKBZpsN1ogu4ZUZZg2R3KFhXpgPTEvJQ1rJtttlmKzDTPfRbCHg4vIVNgDueo5CAY7hAHiy22WFg6KphhhhmS5bcsolhdpWkkIgYKxxsq4dYXuGSwjg+1q0E9RAwrJ2t5f4rHvuD95fjloXSWfSnuvMPkfG53hJNvbH+6trBwXnbZZcklsZvJUvobox8MYYJP+cMPBeqZJZqLkg6vUZlgZDFiRLB0JIY+JHgnaM3dzTfYzWfoT8/ZC0hQgwCTSy+9NE2mIbcwvyqNTHk+f1Gc9lFe6i3IQRAE7aINqh+C1u6wLgpmG86ZEQYD5z7cBDAITMYVw+tD1ZkQ/Lj33nunkc0yXFV0HO644462Z5Ej6BtlBekUVnL3Nav0cLt+OglGQljLhwKaQQdX54X+CEYe7/22eVBHACKdWVoEmvDFIX4loxbEUB6eZW0QDMI5Xg9N4ybdzDe+8Y00nOth1tBxorev8qIBYnEOgmByjLrohPIfDWvw5Ji8R4yCCSnKQ/5ekHwVZbVhLSr/1ktIaaXdFfQ1XMSU9wNjCRc7Q/2DmRatHbyriDyGHxkZvOvqO1r1eKUbffC+bLVuK3TcGJK4scgi0u3+BgL1I0iNkYul2ujLQLsHaQtZonVezjvvvDQKHdPJj0ze83bvvLdDgoMgaAvDxjK0HH300ekFG0zKqaeemmIPdt999xS7UIZL1lprrVWcf/756SXdi+y3336pA7DHHnsMSi7XdjCUbuRwu+22K2acccbat4MPVz0jnUQug08Zgks2JFZHPvmtOqCeUb7pX//617sWrQQef/ZvfetbKRhtOMJXWZvkntp+++2TOB3oTpZsGfy0iW8W+n322WfY3NNB3xgx7hBBEAw9Xtbl3JjBu/DZVD+NfDdZP2Ue6OXYBPfNcDp3vrPiTMy8N5izwzVCB9PkGI0mV9FxWHPNNdMIaKezyHWC0VSjF0M1O1y78MPlryzPshzZgzHK4BimKecqYmKc4TaCELRPWIKDIGgLL2ruR3JzyzUbTIoZv+SZNRFFfYCVZtbQ+y677FJssMEGPRlFbjY8w/sm6Bhq0eB6yKd81FFHFfvuu++QWoEhrRcxxe1A6s96dKxOO+204vHHHy923XXXpvW39dZbJ9EsW0mnlmD1I25GRqYtt9xy2A/1y+xxyimnJOusnNoDHaDmerEC69y6n4ejm0jQHiGCgyBoixDBzWkmgqGp9eI0XXEvimCz57GgyXE81NksuBiwrLICm3p/qH2UDenrJHBh4DfeCPcWgZtnRa0SXnyvPZ/8gjsVZ6zkXHh02ASejwRYgnUilHeg0zhKtyrY9corrxzyUYSgO0IEB0HQFl6MrB5EnuC4YFK+973vpcAvM31VpZIyNa8h215MpWQ2L+KNlXKogwO99lwL2ReGKi1aGZZeqcj4kldZebNwbxW8zRoqMKwb6yTXFWVi6czTdg93WMn5nRPC0s0NJDJwyA2s45sntQlGJiGCgyBoCy9FE9OIEo8gkMn53e9+l3xeZacZakvncIQPJfGrfmL4OOhv+EuzpguOq5/aWedB28W/ud3MNjpJZoITBFw/FbK8ydKyHX744cNiBr2gcyIwLgiCtjBkLGdpCODGiOqXHi0EcGNMR9zNEH0QtIPJRVjDjbicffbZxZgxY4rVV189zRfApatdiOCTTjopuagYAbviiitSyji+/REcPHoIS3AQBG2hqTDczyrSq7lumyFYxsvxYx/72JD7mA5HBKLpIBjyDyEc9DdydB955JHJH1hmCxOMmDSE8CWM+Vofd9xxE6c1hzaNm0kjFxTbSn1mFlrWYy5M3GcEHGr/PO/f+c53hoU7TdA5IYKDIGgLPsEi0/fcc89k8QwmxSyVXCI23XTTYZtTdShhVSMkRO9HJyrob+Trzb66jz32WBKxFiIXJkRZY401JnGH0Gll8dVxrYc1+brrrktuFNCB0+5x55ltttnSDHqrrrpq2+4VwfAkRHAQBG0R2SGa0yo7RK9jWmAWcinJwqUmGEg8hwLlZIy4//77kyg2SY3g1XafTe4UglyffPLJJHrnmmuuNKusmWrDLWz0ECI4CIK2CBHcnBDBzQkRHAw23CC4Rsh3zH1hmWWWaXviD5Zgk2FYnxuETBmtMnMEI49wXAuCIAiCYETDcmvyE/mNMzpbrLayQiy33HJ9cl2Q5pBoXnzxxVMu4LIAJo5NZc2VIhjZhAgOgqBt+MVF0Fdj1Iv6iaCvxqif8AUOBgqD2o2mLM8QsX15Nt2vAuaqtokMEaODeJsFQdAWBN7CCy/cMIgkeCfwZs4554xAmQpmmWWWYo455ohO1AhFgNnf/va32qfhhxR8UplVzcZIJJuZrxXOsVUqtYUWWqjYbrvtKifF6RQivlzGt956K5V7sHFMdTCcr3d/ET7BQRC0jckgqma06nVyFHpYOxsT987wxvV56KGH0pTAsngQQdKNEXxmoONXy9VgscUWq20xsvjxj3+cMkdwb5AuraozZh1CVH7gZvA3FnD3ta99rfZN9/BDvvbaa4v11lsvGR2+//3vF0sssUS/i+1WyAR0yy23pPvA9R7NHdfokgdB0DYhYqohfkMAVxP3zvCFAL7wwguT6JpmmmlSBgQWVYLYzGgEn8AyM6+NRPgLywxh9rdWMxbKN2ymuFboJFx11VW1T/0Dy+8DDzww0forwwVBOtjo0KsDs/CNdjvpe7/9NrX/gyAIKtEwysMpSjqi+yfHS8PL1mQirDjBpNx3331pwgz1E37Twwti95577ilWXnnlZCllAebeQxBff/31yXLKSvn000+nzgwxzDJsuNzkEyyFhLQZ1aQlk5/XZxZMvrOeDdZV2//yl79MAWUyqNiOyCKw8/NjvTfeeCNZId0nsjs88sgjaaY231VlaHC8F198MaU0++tf/5pydeeOl3uPJXieeeZJMzty6cr3oHbttddeS4LTZEDKyC2B65e/ysriK/PL73//+3RO2r+HH3441Q03DM+7sim3ulRmZbBuo46xsv7mN79JdaUec10RwXfddVcK4lM3ymwKaBkq1LV6J9Kt7/zs2/k6vnUIc+X0Pbcs2zzxxBPpfK2j/Pn6OIdcx9DRcW2srz4IYGVi6R7NluAQwUEQtIVG0gxK888/f8yX3wDDmF62XrThFzw5Z511VhpOX3DBBaOTMIwg9G644YZiiimmmCSDAnFEPM0+++zpL7Em+8Lzzz+fhCPBeNFFFyU/b+2BGdpOOOGE1NEhxFheZVWwvy233LJ45plnksgj/s4555yUZtE02vZz+umnF/fee28SYVINOoa8vj5/97vfTeL69ttvT0Kcb3m9sNQ2/ehHPyrOPffctK7zIV756OPRRx9Nz6ZyEnaf+9zn0vk5D7+ZSU65dPJ1BnQAuAE4jxNPPDGJcKLW1Mn265zlHyZYTaBhv+rn1FNPTWU3cYfz50aiDupFpLpynibXyXUli4WyyTxRL4Jx2WWXFVdeeWUSqP4SsSz2roFzcU7E9xFHHJGE/rTTTjvxmq200kppu+OPPz6di++dp+11YtQfN5Dzzz8/lenyyy+fmB95tIvgcIcIgqAtWGy8xCIqujFeJCwvzSLUexnDuuonwlCGF64JC+bUU0+dLINliB9CVafF/S1f7sEHH1zssssuxWabbZaEFsskCMIddtihOPDAA1MuaNZjwpd4tH+BZLbbfPPNkzglej0rxB0XhcMPPzzNRkl8EmK2ISrHjBmTpic+6KCDkoAj5sq4nwhfMxKa3GL//fcvtt1222SlJZpBcBPPG264YbLwZlHn99NOO61Yc801U5kPPfTQNFKR2zhW3RlnnDGd84477ljstttuSSxbpE8j1JXPvm+++eY0pbJ1d9ppp2L11VdPlttchjIE57hx4yarK3Vcj/NjneYmsfvuu6f1nefFF1+crOPqTmdB28ySzsrruOrP9yzE9mF91++www5L9Uy4mxJaR8D5EMCbbLJJyuftGL3SzocIDoIgCIIehaWWFbHVVN/WYxXkDtUIgWTEGqsqiyP3BsIOxCIxWQ+BTKj5nZuDMhgpcAwijvD71a9+lfyVb7rppuQ2wQJbhsAzzK989gNWVRZY1uNmnVLimQAkXgljol4gYHa5MEPcRz/60eK8885LFtWrr746WW6J9HpYW3UoCPejjz46dQrURyMRbF2dB3VlUVfWbSSCld/5uUbcVFjBZ5555tRpYa1VZtZnZSLaTdtuqmfldAxWa+XSgVDXrLw6HqzGXB5sp46JaJZf8J1WD71AiOAgCIIg6FGIP9ZAgrCRCCM8+ekafje8XwVxSswRal/96leTUCPY7J9gy76nZfzut7KfL7cMFmmuAXySHTsvXLHqRbj9EqrcEvIxWK65BNRbtutxPsRlmew/C0KSS4L9ENgs2I7VyErKR1h2DZZZLiTWJ8wbrcs1g+9tTqs400wzpbpoJNidE6utJWNdx1FvjuXacXGwTxZqZeTH7DMRrBzqB7kudRJcJ7/Zd7lenb/r0guECA6CoC00xl4aGuBgcrxMWLLyUGswKYQEgdNIDAVDi+F8bgYsilm0sbCy1MqA0MrFh7WTv/e6666brJyLLLJIsiy63s38v4m4HCTmuI6Tg+6IbtsSdeuvv36x9tprJ2Fsn2XcTwLguAIQ7CDyiFLD/83uN/ek4xORzlcngHXUXwvrrLrhLrHssssmUW793BlQ5lxPRCfr6SqrrFIstdRS6dws9UJcXTlH+1xxxRVTXQloc16NMqhoT5xDDrZzPD7HBC7xqk6IXlk8CGL74Ufsd5ZhYlxdgiB2jaRg4w/se4t2y/XKVmv1p0PTC0RrHQRBW2ig99hjj2TpCSbHi89QZDNrWS+z1lprFRtvvHF0ooYhxBEhdemllyZfXcFiRKRAM1kcdPCaQYi5rjIsGKK/8cYbU/AXlwairRlEIMuorAWCtbg9EMP2SQDzZZX1gUVWmbJFswwRN9dcc6WAMWUQGEd8snY2E8H8ZfkgC8yzne2Vg2Vce6cMxKffCEpBaD4TwsooCJCbAXcFZWA5Jj7VoSA74rreEmyf9q2ecl1x27CPqs4GP2X16Lwc77rrrku+2kQ5WLPVHZcUollwrrJpq/O1c56EOmFvue2221I51JM2i1VYh0f5BQDqDPQCkR0iCIK20LhqdMPS2Rgiopx6KZiUbLWK+hl+sLiyGLI08hclzFiFDdMTooQSv1LW0TwjG3HHgktoSRNGlBFPAsQIMP6lhvoJUZ+JVG2H7fihEnZ8T/0uwIvgJr7dH/yCuT7wyWWRJE5ZmnWkBLnVt0EsrtwvCDsC0T7MHkfAg6VVVgeWUutmCHcuCcSoHMnOWYfAvtSHc/LbNddckwQksek8/OZeZrG+5JJLUrsoowM/YFli7Me5EZbqsGwNVjbrE5wEv7pRLusqCzHMkuscBbk5X64d6su+dS6I1p133jmVATmXsGA8+3eOrhU/bJZssPyy8PKv1plwDiussEISydZnNdfRyOKdVdv2zmM0P7MxY1wQBG3DAtJoyC54J9+ol0Wz4d9eJu6dkUFZEvRV/HSyLeumIXkijHAjwohqbgUstcj7bWef1u1EtDU7Rqvfyt+3W9a8Htotb7v7bkarffTHMUYSYdIJgqAtvKBEPTeKjA6K4tZbb02WMFanYHJYvljU6oeHg+EF8ZOXvtLJtu4HOX6POeaY4pRTTklWSWnMsgBGX/bZl2OXaXaMVr+VabZumbxeO+tm+rp+I1rtoz+OMZIIERwEQVt4WclvKSgjmBz+gPwGDRsHk2NYmz9jiOCgDF/6bbbZJuUYtmywwQaVadiCoL8JERwEQdsQMK0ixXsV9cIlojzMGbxLrp8gKMPiy/0h+5/y4+0lS2QwtAyZCNYgmh4wDx1yWpdjj0M+p20O9/VoQDmim+XklltuSXkJpUXpi2XB8SSQNnQpIpNlohzBaqhXdGQjlNmxG1l67LevZQmCIAiCIAiGhiETwYIkRG+KjBSxSNSatk9kqejOM888Mw0vZvgjEq7m8RaNSUCLZDQHuYjQdsSnY0m3cvbZZ6doUylFOOWb014UJiFMiDtGI3KZRW+WEZmpLGZpqbeS+Wy7Zji3VtYjx2i1juPUH78eHYlm1hjHUJ5WtFOeds6rnTK7ts2ur2O0qmO0W+ZWqL9mZW7nmqOddXS4ui1zq/pDu2VuhbIOtzK3OlY7ZXacVvdpO/RXmdu5T9spczv17Pf+qudW9FeZ7aNVO5cj6puhPK3K3U6ZlaVZmR2jnfobbmVuVZ52y+zcW5XZOs3K7Dfn1Yx2y9zO89WqzK3qLxgeDFl2CDeiNCimIeRjKGBCMmwRopJ2n3HGGSktiPm6wTps6kIRo1K0SF3C+ipdCOFsHnOpTaqQCFrqF9MDrrzyyilFiZRGrMBy/ynP9ttvn1KcKJOpD+uxDod9Zc25CpWBn6ThHOUqp1+xvikK5UDMqVoaQVSvs846ldMUepjMae6haxZ5LtG1+dlNGdkIv+c8ijm1Sj35BaM8VfWpPPLFSvtSlS7LbaVuv/vd706W3DyjwdKJkfqmHARRxrEg9YvUNI1wbY888sh0Lcr1X6ad8jjWIYcckv5WnZcyG6rbcsst03SVjZAIXUfLelXR8Bps9WeO+aoyE2Y6XVLjVF1395jI6n322afyWJ4dAVvKU7Ufdec4G220UfrbCOvINekZqMqF67zU8+GHH57yZjZCeXRknXfVsKeOsRRLq622WuWx+JjK71meSakRH/nIR1I9V+GZd734IVZdd8+o+f0lma9CWS699NKUo7PqmqpDqYnUcyPce6aKVT/apypMCrDEEkukZPtVeXe1PUbLyumZ6jECt+qqqxaLLrpo7ZtJ8dzImyp9VdUMUtbxDEqHpX6qrunWW2+dnnWpr6ruQ22/NkwdVWFSACOGrmsjlMez416VN7URUoEJxJKaq6rtgTbTs9XsHmOw8cxX7Ud76jn1fjPtcCPU37HHHpvKU3Xv2I/rvtVWW6W0V1X1bHpf6zV7V3jnjhs3LqXvaoT73TU38lrVXuZ3xRZbbJFSezXC/bX//vtXXquM67XXXntVPuvyBDOSuW5VOYvVsWdmww03rPQp1ja5ntq4qvrL10sbVgUDHT1i3ap6di3pGc8ELRMMT4aFCJZbU2OTpz30IvDS9rIkWkAEEr6bbLLJJC8qDzurMBFqfTfb0ksvnRoSrg5EMoHM0utF941vfCO9zMoPAAsuS+4aa6yR/rYjgoloZZY70P9yHdY/DB5sLyJlVKZGqH6NjVl27LsRhBeB7jyqGgk4FrEox2EjWMJ1BNS3nISN0BizjusoyF3YCOVxHeQpbCYozYmuQa4qs3PX8MtfWCXc1R2R4ppVdRI0jI7lnFyHRuhAHHDAAcnqX9UgK/Ouu+6azq3qhcZNR3k0bFXHklfStfASNrVlI9wbOiTSdFcJL9fCi1O5qwSlfJREihdIlQj2fEjeLil9s5eM50VQSv00ohn3/957712MHTu29s3kKPOee+6Zzr+qo+U4njEdraoXkXU8X/KCVnUgCTx5M5W5CqLc6M9BBx1U+2ZydGLlzhScUyVA5PMkhJody/X0klXPVbg31LVnpxGeLZHy8qVqq6rqRxvkOZfns0oEOyd1uPjii1feY0bXvKiJ6Sp04rUJZppqhDIT7p4xncOqYxlhI8jnm2++SuGgjTaTlo5EFdow51XVXnqOubp5n2gPG0Gg6PDKx9pMUGoviKZm7a53E3/WqnaXEFQeHQ0dgEbo9OnIq5sqQenZci97T1mvqsxEp3unqs2Ad479VIlyIviCCy5IYjLnma1Hmd3zOnRVYprY1pHXJlSVF4whu+++e3o3NYLodD877yrjw6uvvpraQm0zPdAI7bfj7LbbbpX3oOulQ6tzUwVDkrzCZpGregcaVfb+0s71yhTEI5HGrdUg4ybysOWHJPcwNc4ZN7cGpL6BJWgk89YALb/88inHIFHrIWYt8JBreN38GpFGDZ7jeNk2s5iUId7sz4Pr4bR9owfKcezTuUl4XbV4QPK0hlX4XdBAo+3zogNQ9QKC8hB3yttoewtBqiFqVR77aVYeL4VWvf9cHmKy0T4sjqF+qhos2A8LQLP9OC/Xov7a16M81m20DwuxTpQ1q2dltY51G+3DksvTbD+wTrN6ds6t6ll53But9uM5bFU/hGCj7fPivKqEZMa9pX7cI432YXGPuhbNyqPuWHQabV9eWpXH786rWXkIqlbtAzGqA9Fo+7w4r1a5cl0vHf5G2+fF763K47yUu9H2efF7lYjOKK/OXKPtLeqN6GjVZugUNWt7LO7TZs86lMfxGm2fF4aJZuVxXxGJrcqjLWynPCaMaLS9xXPnPm113T1/rdowz02r8rCUNmvDLO73Vs9Wq+vlGNqeVm2Yem60fXnRfjcrj3N2rGb1o73VWWlWP45hnWbPuuvV6tlyzsrcrJ7VnTpsVT/B0DIsr47eoxlLyhYVorPRkIKbWmOngfFiYEVgJbG4AQ3peygIYJaKRoLBTdrqhZshgAlslg+NjeE7yxAZ1IMgCIIgCIIOGJYimAuDoe2yX5hhTUK2FYbRDNuyAht+Kg9V+N7SLVwmWFAMC7NSKm9/7DcIgiAIgiAYHIaVCCZ0uTMYxjNneBlBZ/xwGiHY7eWXX07/2wdByjpcFs2GLgz78cerxzZ8JtsVsgJ2WJjtT3AKEcwXMKzBQRAEQRAEI4NhIYKJRw7k119/fXJJEMjBPaEMNwfBBdwk+AtDAISoXMJZoIT9CPTgNyXimbDNs1sR0fyJWHE59FvXQvgKjBGIY3+tUD6+R9mPjpO+8ormFqDVDPvnOiFIr51jNUPZ+T53ux/R6uq+G3Qi1OlTTz2V/naC89Fp0ZnhbmKf3eAe0TnqFuXqtoPjGrlvXS9BRJ3inAQ32k+3Iw/qOD8b3eA6dbOf/Aw6p26nY1a3ni2uU93eP7lT3S2eh3ZGsKpwHoK4ZMLo9NmCerafX/7ylynwpxuUSU70bp4J2N690+1+uLnJYtBNu1p+tuyvW5Sl1fugFc5FmbqpH9tq4wXQdnPdPaPqWDvW7bPlvJSnG5yX+7mbZwuuu/ffM888k4KVO0FZ1K1nS5m6vZ+DwWVYiGAPunQ1BCz3BTeTrAtlESOTBN/eI444IkW7i57m8iBtCmHKQV2QmnRpIoJFbXrY+O56ORLGxCphLMJWJgm/SWkkwpzrRHaGJ3rsv7xUCSq+yI6nzB6kKjwY1pEPWfmffvrp2i+d4cE9+eSTu3oxqh+5knUuusGLTPS84EVR5J2gMfKil/NZ/ejUdIq6dr1kKOgWDf/3vve9jl+MuSyuuzpyjp1C3LlWovXdk53iXDxr7v9ucM1MLKMT2ilerqKoZdxwvTp9gSiL5895uX9ct07xQtOudItn0zWXEaJTPFvOSXvISNBp/RALrjcjgGe+0/0QQASeSP1O95GxH9kFOhWuUB5tqTqSUajTzotnizFExhHvhm7OTV1Lu9mN0FMnRj6vuuqqrkSne9B5eb7OO++8jvalLIxN2jD7cd26QRaHk046qfapMwhWzxbDSzcoi/bLJFjajU5Qlvxs2U+3BopgcBkyESwYTdorwWUaIA2ZG/o73/lOSmFi0QBk+N5KKyQVixzCfpfCRFaIjTfeOAlkAkEaH5HDxLQ0X/bpJs3Hk3dYb1Zqqv322y/duLYRLUpMO47eXC5DuSz2IUNFfbQ58Sw3YTMRDC4ZUtcon3PulCzuWctbRXY3IwuQbl9mOgJSvOkMdNpgq1tRuVI+2UenvXJ4CUlfU5Vupy94EekUdYP7wz3GhaYbK5N7WiYU++nGasolyL3aKqtEK3QuCbNuzskzJ2OL56fsv99X8rPr/hEQ22knyrPlRe9+7BbXiHjtBs+3rDfSLHUzimA/4iy4b2nfOn1OdRB0VprlWW0Xo2/a4m6RkUOaLhkhOhXUMhgsueSSydWNyOu0TcydeeKzfjSzL2ibpcrrtm12HzPwSIfW6f1jH7KDyNHvGe3GQKGtIDarUke2i5Gsqpld+4Lz8WwttdRSHbdjtIcc9oxsrnun92AwNAyZCCacTjjhhJTxQQAca5seWXmRNL2MdceMGZN6tH5nRXADE6VuRHl0ZZTIqWiIqh122CG9FDOOJaeq7BH2cdppp6VgOttDSrVyGfKiLPZ7/PHHN0ycbh/NEul7YdhO46YR6eaFz9qhYWqWu7IdNPw6Ct2iHOpGw0SIdILzcZ1YvrygOxX3tiXsvfC76SBk5HeuyjnZDq47weAF5IXWzTWzrX2wLLdK4VOFBtpQNvegbtGB3WWXXSqT17eDZ5cYJ6666bS4f2SH8RLSCeq0TOpG3XbbQYB8r8stt1ztU2coh2eLWGyUHadd1LPz0vm2v04FLOEhXiO3l91gIouqnLjt4rq7b7geaM86fS7Us2eLAO6mbdYG6mS4F7vBuTTLudwu9kOMK5Ng7k5QBu8u++Ba0c3zroPgHZHf0Z0i7agOXbcwTEG70Wn7I/5IHXtGvXO6vWbB4DKkV6vcEPvfzVNeGjXUvsvr5v8zVevXk7erOka5DHnJ6zVaP9PsNw2s2ZK8jDT83Qwpedg0JoaoWDy7GX5pVuZ2yefGulg1y1wriDPiLudR1dh2grKw/isLMWx4sxv6o34IcxZlDWQ3L31D/CxNLDudWtCUhXXSvcPS1M2IBPqjfljaWQWN6nS6v2yBIxRZmTr1U87PlpEpQ/7dWLn7C25erpkOeqf1Q8C41ibAIRg9J53w85//PD1bP/3pT7t2p+mPewcEDPcgbUenHQVtj3uI2x0jQ6f1o57z88V9oNtRkv7AuSmPyXu8y/qKttn2xCu3wm5iSNzLOlJchMz81+mIRH/h3JSFS2bVpCCt0OnWbni2vLfCEjyyiC7LIELc8T823NqNRdDDKvDPX1aZbnrVhFk3PXvwfTMDEfHAX7WTAAwNPjHEX5ufVqfnpJFXNxp8jVJ/WDy7Gdb0YjX8ZwiZKPcC6GbYTSYSQZidXjP1ahY6M2VZsiWkG7qpHy9UozLZl1fgaKcvRhYZo0Puw07LZKTIsK9hcZ2NbkcTcg7zTtG55F9KlPPl7eTZgnuHGwxhz9WoU4FlZjn1op76azShGwgOcSDaVf6YRFYn94/rzDXObHSswp3WDwuliZcYAwyRd3P/KAPLdjdimLHF/eOdw12wkyBfx1en2h33YTfPO7cD7j06vKbZ7ubcun22oPPk3aXjomPXifHFObjvPFu276SjEQwdcbUGCQ+KYXXuBxrJqik/28FwHYvi5ptvnjJVdPPQsZ50O6wkQ8ZOO+2U3FH4RXUynOgciNbVVlst+c9yIegE9cwS6AXNVYblohuIB37cGtxOsD0LnumYucsQD5023OpEwCeR5m8n5PvQy8h1r/dv7yvOr9OygAuMzC989Z0Xa1Mn97NyeBZcK9edj38nuHfdz+uvv37yNe32hUZMV02n2w7KwhVrzJgx6Xp1OlRPuJhyVgdRJ6jT83IPyrLDh7vbZwvcRboRiq47P3nT4GpXla2Tc3Ne9qP94Vfeaf14ntw3yqKT2c39QwB7JrrZh/PaYostiq233jq5n+j09lV4qmOuherGs+X/TnHPCGLfaqutUjvd17KU4fJmZrZuYEjaY489kk85l8ZO2kMdufxsue5cUIKRQ+dPV9BnNCYswJZuxQc8bN00IugPSzCByGeMBUWZOmm0nYf92AdhpK66wf66sViU6baelSPXj7rudF/qlQiyn27PTV13KuzLOJdO/TCRnwn+eP52I4hsm5+vbi1E3ZxTGXXcTVlsTzh082zBdXLv2U+nQjrT7TUv4z7u5tmyrfPJddTpPZ2fLfdOf5yb8+rmXoZz61ZQKYNnKz9fnbar9qN+++PZ6o/zgndot22YZ0LH27m57p2+u1zv/Gx1cz8Hg0+I4CAIgiAIgqDnCBEcBEEQBEEQ9ByDIoI51ZtI4ZBDDkmRyVdffXXyBZNXtrzwVeNgznn/gAMOqMyxKZJ8++23T+loIIcvZ/v6/eWl2zyvZQQ6iQBuFKAialoS8G6TiQdBEARBEAQDy6CIYNHwcvsKyOFbJJ2IfL5y7pYXs8ZZh1AWMS6aleAsQ3xKCyYSU2oSVO0vL/0RAQ+iW3SsaNKDDz649u278AdSdumw2o3AtZ76sW+R8VWLc22VeoVAl+ql0fYWKZLUp/WqUB4p1yT6b7SPvFinVRS28jpmo+3zojzN6soxRLPryDTa3uIY6qdVeZS5VXlaRQc7hnWa1Y9roMzNzstvytxo+7woa6v0d8pjP83OS90pc6t6du82Oy/HaJVw335a1bP6aee8POue7Ub7sDivVs+Ec3ZejbbPi/3kPM5VeGbk9260fV5kumj2bMEx3PONts+L9G6tMog4b21Gs3pWnnauV6u2R/20Oi/ldb0abZ8X5+14zXCcZs+6xXk12486Vh712Gh7i3qTWq3Veam/ZvegpZ3zcr+3apvdp83uZ+dlP63qp9Wz7jfn1Ww/zln9tNqPtqfZedlPOxMftWoztEut2ni/qcNm18tvzr2d69Vo+7woTzttqjpsdf9oV5rtJxhY3vN25Q947bOQ7rPPPmlyDEnETz/99NRI1U+GkZGwftNNN02z3IisF3mZkUbJdIlnnXVWShlENJvwQuOx7bbb1tYaGEwJ7IYWeX7iiScWF1xwQe2Xd5EKS8owZeG0n6dirMrAoPoPOuig9IBXRVt7mOTkJOglPK9yvD/11FNTTkjBC43IDaho/KrsFB7a4447LpWHo38jlEc6GdezauYfDY2oW+fULJBCed0HIoYbIV2aTodyV+UA9SLzApadoipy2blvsskmKVq/qjyuhXvVta0KjjH19fjx49P/VQFGGjUBFmPHjk3ZNxqhfkW0V/0O52UE5ZxzzplkwpcyOmVmUFQ3VUEdGmy/jxkzprIO5Vb2HOkwVp27664e999//9o3k+NYG2ywQUpRV1XP6kcgiUlrqsospZNnSdBKVfAL8SYSv9lzr8yyqJhpsgr7gfOqCjiUOkv6v2ZZS7RbIvAtVXhuTjnllMr7VHmJAb+L6K961t0TRsqaRdhLiSZbi+e9qp4ZFExVbra1KlwvWRfUYyPcEznNnfWqkH9Xm85gURWgxRCijW02cYF82WaolM2hEdoebbPpj70fGuF94VmXOWGhhRaqrEMjku6/ZgFlnh2TMkn51Qj1xwikrWs00RKUxwiiOq7aD7F96KGHpnahaj9w3Q877LDKNkP9HH744anNrNqPdfwuU0+z8zLzqiC3qneO97z6cT2aBYxpC7Q7Vc86cevdNG7cuMpnR9tsJFZ5qp5jgtw75cgjj6wMztPJMglQswwz1vFMacOr3pNS9hn1dh2aBcJLpydbT7eBlEFnDIoIvvTSS1MDYAYcwqEdEWyqYiml3PwacS9UPS85DxWZADNla6ci2ANOSNtnPR567hX1KLPG0EPkodWw1XPvvfcW1113XXqBEazEDppFw2q0PJxVD4HzVV4pxFoJSvVV1WB7wdqXF15Vo6WB1RjbT7PyaJAIymbrSLCu4WvW+CkTIVPVaGmMlUc9NhOvjiGdVFUj6jhy9LbKzuCFLu1OVR363ctcPVWt415UL86rqvGzvYkHml1P5+X+lGKrqp7dk+6fZvVsHc+d6151PPXr/nHMZi98DX8zoePcCT1iukp4WUd5qgQK3O+eM+fUzX6cD7HY7PmzH9dJh6TqWMS9jljVdYBnmChtNmEDIaN9q7ovlNc9TwQ2E6bKY6m636E89tFMMNkHS16z+9Czo72omgVNmVldPafNMs14dqR2bJZ9Qd2455vdg+pHZ6TqvJRHR8L1albPjjPddNNVtoVg0HD+zdoM9ezeqRKdtncvu6ebtWHuQ21Y1b2qzdD2KHez66V+CMVm96rzcj2q7h/l8Sy4f6qul/Joexyv6ljO3bukSkhndEiaPeuO5TfPejOBq34cs9k7UHmbTczjOmibmz1buc1wvaqO5R3J0uuYVecFbaXOfjA0DIoI1jtjicnJ54lgVsv6ZOssecSnhpDIZEk0q5XchBpgDy6LDKvqNttsk6wPWQRb6vfnWNwWGr20NSSSrGsI6pFvVKLzKlgi9txzz4Yi2G8shfKM9kcy+SAIRgZenF6I2o8gCIJg+FPdPelHCENDBuXeIiFrgoXyIvl1mSwiiWK9NyKYVatRguxG+zNEVTVcrzcpsb7k1vVLMwHcChYKPV8WnyAIegPWHu5Z559//kT3iiAIgmB4MygimHCtx7DYAgssMMlSP9xmaI1fDt8afmKGNfkINxpyY+2t39/8889fObREVPNVMsVq/UK0d4phKkM3liAIegPtk2l3b7nlljQEGgRBEAx/BkUE87jgdtCJ54WpDAX/8D3i47XkkkvWfukOju377rtvsfPOO0+2CMjpFOI6+1MFQdAb8EHlC/3QQw8Vzz33XO3bIAiCYDgzKEpNkMcLL7zQ0CLcCm4U/IkJU3OxNwu86AuCVwTs3XjjjZMt3Cg6JQfzNAv+GI4Q7qJrw4Ldm3g2BUk18pEPWiO/OZ9gwTnakCAIgmD4MygieJZZZkmW3E5esAJNpNUR9ckqXIVMDwLoGi1VPnqstY2WqqjRfAyZH+688870v7RTzi1DBBPqVZHCww0WcVk2BCLK3hG+zL2JIfwjjjgidQBlYGHZ5OcatEY9SekmFgACbkWGD0LMcRAEQdAFg5IdghVYpge5+aSNyi/YqhRAxLJguHI+QEFx0tAIrrMt310WYmlMvMBZYqrgR9ws3Um7OA8it4zyEPl8j5Xr4osvTimHttpqq36zWvcnUrvwX3z00UdTOjd+jM5LmblymOijWUql0YTrpcNT1enpJQzhS0vI/166Hv758nMvvfTS6fkRYNofz9BohBVd7lt5aTWnUm7JfrPqqqs2TWUVBEEQDC2DIoKJ2v322y+9VCU5H60vUwF1osO5bRAPw1Fc6VyYdENie3k9id/sAsHqLndzVR7G0QYruFyPvXK+zZDn1SQ0OkQZrkhyXc8777wTJwOIDsOk6EjphB944IHJHcJIktyh2gATMUTHIQiCYPgyKCLYISTD5ivnxTDS/GXbxTnecccdyQLUbGapoUaO5Pvvvz+5QRjGJYz5g8KECc2S/QejEwJu++23T3m5jQSwBBO9OnNmM2o2cUPwDmZfI3obTbQTBEEQDD8GRQTDYSwsJaOVXJUjwVqmrCzARK+odtPzcoUwAYgZbILegs+96aJZhA3tm8qTuxF3n7D+tkeI4CAIgpHFoIngYHgjqp17BL/rqmkgg9ELv1a+4kZpmk15HFQTIjgIgmBkEW+6ICGIz4QjIYB7E+LNFORTTjllCOAgCIKgJwhLcNARbhu+xeWUaobNp5hiiiSoCSnZJgyv199ifhOMllNKoX5bCKj805/+lIKPyvhdNg7uHG+99Vbt23exL37N7QzjKxsrOBFY1QFQjjfffDOVzXEHsqPAIqssnaKu1ImylqcpDwaesAQHQRCMLEIEBx0h1ZogKtPESqlFKBK9s846a0oZZ5HW7uSTT06CtGxdJBSmm266iem4IK/qzDPPnPxQZ5tttiRgTZN9ySWXTOajTECbFlt2B/7MbmH/G8qX7UFaqm233Tb9Xw/Ba7FP28khfdtttxULLbRQw+Av4vf2228vHnjggZQpYa655kqR/46hE2BfJoPpD9SBVGVf/epX02flE7DITUF9q0cBa0Q4sSxdn/NWV+pTbmodC+UV1PaZz3wm7ScYHEIEB0EQjCze++23qf0fBG1DlMksQbiZNIQvMUFramv5Ur/0pS8lH+Mbbrih2GyzzSYGWln89uSTTyaL5brrrlt85StfSblVzVhHwPlMpD7yyCNJFG600UYTt7X43dA9UciFw2Jb+WyJWb8rS9kSzEIqN7I0YMpsm5zSjpgnqrMgL6M8psKVJozglVt5+umnT24DRCiRLkWWbbvJesKqLTCR8M8imBXdBC1EsLoWvPjlL385pS576qmnUrYVHQ25np2bMhL+gh2VR50Gg4fsMDoo7u8gCIJg+BPOf0HHsO4SW4QZ6+hyyy1XrLzyymliBaIUhCHBaeKTvPjMkkrE+mx72xLErJeEL4hYgq+8bd6eSJaGzucvfvGL6TNrqM9ESNnyTDCaqOUHP/hBKhshTSjKhkBMl8UvsWwiFsISTzzxRLHssssWK664YrHBBhskMS+XrrI5PsFqopbDDjusuOKKKzqedlp5lWXhhRdOn1mBpa6Tx3nttddOlm3/K7cyKoPjb7755mnWwjPOOCNZprmPEMKjNQ1hEARBEPQXIYKDjmENZok0hbS8wwTjVVddlSxiBC64G9x9990pf7KFuOQ2QeTZ3rB+XqzLrYJvMKzDWpu3zQuR2grbEtNHH310stbOPvvsxfrrr58ELbHpGGuuuWaxzDLLTDJZBnFrVsMZZ5wxuSKwxvID9j0/WwKUtRs+Sye2ySabFKusskqqC1NPszZnrC8H73e/+93igAMOmGS58MILa2u9c1yuDmUrorpwbKJWmfzNIlvd+czaa3IGAtg5W587SViBgyAIgqA5IYKDjiHSDN8TvoTm+PHjk7WVUCPCiDIuESbluPrqq9Ny7bXXJsFLxD377LPFzTffnHwpWVHPPvvsJJBZapEFZN42L1wSWmFbLhd8hglgFlwuG3kaW5Zj/r2EZBliNFuZ7cPwdtmqzNJqyfiNawQfaC4VPmcrMnxmoR47dmyxzTbbTLKYPbG/cT7KH0FxQRAEQdCcEMFBx7A6rrbaasUxxxxTHHXUUcnqakpm7gq/+c1vkqAUKHfIIYekdSyHH3542o5QFtRFqBLOfmMF3XnnnScGmhGgSyyxxMRt82LWwVbY9utf/3qxyy67JJ9ek4AIbssz4ylbWdw2guuEpRmyY/BdvuCCC5KINzW4Y5Yh+K2XBXReGmW2CIIgCIJgcAgRHPQrfFFFyHMjaAZXgvnnnz8JxlNPPTUFzxHGxGl/wRrKZ3ffffdNAXOyUVx88cVtWZIz3AyIWLBSsyTzU2bl5p/L+s0Szvp68MEHp/Pwf8Z63CcE2MmkUV6I5yAIgiAIhoYQwUG/kd0f+PZmn+BmZGss0SzojPsB94j+xDEIbgFn48aNS8K73gWiGdaVlYEQ5p8sUwNLN4h2mSgEp/E3lkKt3rrs+KzJAuv4DZcXZWmG+mQt9pcAz2Icjs0dBbJWBEEQBEHQN0IEBx1DlPEFFmC21lprFbvuumtx6aWXJh9cfrDZatrI7YAwLQekCVRbaqmlkgVZ5gNwaZC+zP7Li2wI/IwzhKZ9Wb8ZjjnPPPMk/+CMbeXXzdsS4vycBfuBeJXpgsjliiETBRcP28lkIbCu1VTTRD4fY4Fv5aVZfmH7lzUDxDuL+VRTTZWOpT6V49Zbb02W50MPPbT45je/GRkhgiAIgqAPxGQZQUe4beTb5debIfaIQaKSBZWl0uQN3APKQjhbOAlO62ZYN7kf2I/F/6zK1itjXwLv8rb25ziOmQPf2sW2JsTgp5y3ZVlVFt85tt/t3++OWxbvA4my6RSoB/VKxGfBzjLsN3+5fehEEMHEczA0xGQZQRAEI4sQwUEQBP1AiOAgCIKRRbhDBEEQBEEQBD1HiOAgCIIgCIKg5wgRHLQF31j+p2X/XJ/59vrbCTxxBNf5a+F3aylnQQD/XMfJvrrtwB/ZNibmyB4/tvW5U5Sr1bk6hnPgL50XPr31fs2N6LZ8VTh/+22nDEEQBEHQK7z3229T+z8IKjH5hdnXZDQQGEbo3XXXXcWNN96YhJ7vBW71JTDLhBGPP/54CkDz/+WXX54+E23SitmXHLtPPfVU8cMf/jBNS0zcCgJzrEYQvtK0ycurfPYrcMwxfvGLXxSPPvpoyqzQVwjIhx9+uHjxxRdThoZGWMcseCbOcB7Wl5NYdglBa+qoqn5s2035mkG8m8VO4GBMpzxwmC5c0GJ56usgCIJg+BKW4KAlRClRd//99ycBSrDdcccdSeQRo/5KWdZXi7BZ1AhrGSZMHDHvvPOmNGm+e/XVV5OYPf3004srr7wyZYSwPqFsIXbrYXGVZ/jII49Mol02B6LyjDPOSEKaiL7vvvtqa/cNVtqf/exnqWxVqCci+eWXX05TKFvkDlbuE088MZ1TFepU+foykUe7qAfiXB1nq3gQBEEQ9DphCQ5aQlzedtttafY1VkqWxTPPPDNNcUzo+f64445LOXOrLLSNYKX9+c9/Xsw444zFXHPNlay/hu1ZmeXgJV5nmWWWNE2y/L5zzz13Op6Z36w79dRT1/b0DqZHJlLHjh2bxLT1F1xwwZRm7fXXX08W4ddee61YdNFF0/qErX2ZDMN0ynIa5/IT5nfffXcS0cojzy8RzBJtkgtiktB+6aWXJk4M4js5jm277rrrJgEsp7D6IYDNMPfZz342HXPaaaedmDbO7HGEqjIS/osttljal7o577zzkoWR6JdqjjVXuZWZoFeH8gfbntjWCbCY2IP1meWX9Vnn5ZprrikWX3zxpjmNg84JS3AQBMHIIizBQUsIP+KMEAVRRQgTYiyMLMREK5HZKfbJkkywmiSCCOTOQMQSpgSjhVvDhhtuWEwzzTS1Ld+BeGatJlbz5BV5GymrzBhXFn8srybikNZKuR944IFkcSYk7evqq69O3ymXSSn8ph6gbETmD37wg0pBaTuL41tHuf1PhJtmuez3TJxyhShDlOtoELLOnyBnzVZHLOHcG+zvhhtuSKKXMLYO9xSimBvJOeecM3E2uemnnz65rdivcw+CIAiCXidEcNAUgo8Vk8gi5EDUrb322kkYnnzyyenvkksuOZkVmAU5B4cRY/bVCN+zdBLV1iNkWTiz/3EZws/v9b6thCuB2GiGOutmH+OMMpntbqONNipWWGGFYrXVVktWXJZdvxGcm2yySfptpZVWSq4EhKuyWo8wZrGdYYYZant8BwJTh+Gee+5JC2F68cUXF08//XQS9O2i7rhWLLvsssnCvsYaa6Rjqafx48cniy6Ltt/ytM6mdHZtll566VTmddZZJ1mOQeirGy4XIYKDIAiCIERw0Aash2WByz3A9Mibb755sddee6UphVlts6UURPNll12WfGEtfIaJy0YQlk888URyCzDEb5lyyinTEH+7sJjWC91mOCfC8Atf+EI6TraUmoWNYCX4WZuJyK985Stp2mJ1oEPAkksss37XC27YN7cMSxbPpjeuCqhrBFcKApxF+qijjkp+186NxVgZrr322uQvzU2F0FaHfKp1ELimcKMoW6lt6/g6C1WdkSAIgiDoJUIEB00hnvg4ZkFKQLFQEov8gwlPbhJ8Z8siGCywrLkWPqmNBCN8bx/77bdfMW7cuGTdZLVkFWYRLuP4hvrrBbV9KKspjusD9Kxrm7L4U+5s2Ua2jtoPYVzv5sD/l3WWFVj5CNsnn3wyif0ytp9jjjmKbbfdduIyZsyYJLIbnb/t6/cB9c3aztr7qU99KrluELtZmOd65Y+8xBJLpPKyFG+88cbJB1k9HHHEEem8M+12EIIgCIKgFwgRHLSESwIBCEKKzy5BlwUqyyShVhaO/v/GN76RgtoshvXLorMVrLRrrrlmcrUgQEHEclNgVSby6hGEpizcELKoFaTGd5dgLbsBZD9j/sxEM3GrzMQ3wc7tgL+zYwqIY10lVol1xyFQzz///ElEZrsQ5QS+8jiGTkU9jiswbqaZZiq23nrrYpFFFikee+yxtI3guvnmmy/VK5eM7PKgY2JR74IWn3vuueT+APvjj/yhD30oxHAQBEEQvE1khwhawsIrSEwGB4KLiCJS+dQarueTSuTOPPPMkwhh65WXenJ2CBZM4rMMgcrdgEgkeg3/s4YSq4b9HaselmcikcVU2axPELOYCowjkPnr5uwQxC6Rzb2BwCQsiVwCmTC2Dy4a9sEnlzAmJmWosE9BdITm7LPPnvbnN+4KguaI00aw8Kqviy66KKWZE8zHFUT9Edk5O4TzULazzjor/VU+58DKzPqrTgTU2d514bIhNRsfbYFzAv50XtZaa61Ut64h9xR+wlxHGl2PoDsiO0QQBMHI4j1vv7jDQTBoCvF37rnnJvcHYg1EFaus31h4uRCwMvYF+2BJlc0gWzPrYcnlf+s4hDFfYenF/vd//7e2xqTweSUkCV7r26/1pRezL1ZYn8GlgagWUKbs00033cSAO5ZvVlR/iWLWb1ZWQpU4hzJJa5b351GyDnFc5f9rHWLVBBoEseOqB/XnNx0D2/rfeVhPOQlaZSBonSOx7Vg+O362XufvwTqfXTtYvGWO2HPPPVMHJuh/dDzcl7KRBEEQBMOfEMFBS1glWUS5Bey0005JXAYjB4/4aaedlvySdWLCCjwwhAgOgiAYWYSaCVpC9Jp4Qhq07BscjBxYkrmQfO1rXwsBHARBEAQ1QgQHbcFlQdaBvgS3BcMDbhdzzjlnuoZBEARBELxDiOCgbcKKOHKJaxcEQRAEkxIiOAiCIAiCIOg5IjAuCIIgCIIg6DnCEhwEQRAEQRD0HCGCgyAIgiAIgp4jRHAQBEEQBEHQYxTF/wfN4bOGkwH/FQAAAABJRU5ErkJggg==;" parent="1" vertex="1">
          <mxGeometry x="979" y="-219" width="705" height="219" as="geometry" />
        </mxCell>
        <mxCell id="DQCrlzxfUJx0nf6Im-Hf-4" value="" style="shape=image;verticalLabelPosition=bottom;labelBackgroundColor=default;verticalAlign=top;aspect=fixed;imageAspect=0;image=data:image/png,iVBORw0KGgoAAAANSUhEUgAAAhoAAAA5CAYAAABwHoKXAAAAAXNSR0IArs4c6QAAAARnQU1BAACxjwv8YQUAAAAJcEhZcwAADsMAAA7DAcdvqGQAABWlSURBVHhe7Z1ZcxzHkcdrMBgMboAgAILExUO85DBpk5JM2k8b2n3c8Mvuhj6E/R38haS1/GKtvbEPlh3ep5UYIfHGQYIiQJzEDczgcP5ypuEhMAC6qnuWMJk/RnEADrrqX1mZWVndQzKzK7h9bG1t6Wt9fb2+xmFqasr19fWVvzsa3/5r/fNg+g/H9B+P6T8c0388pv9wTP/xnHT9deVXwzAMwzCM1LFCwzAMwzCMmmGFhmEYhmEYNcMKDcMwDMMwaoYVGoZhGIZh1AwrNAzDMAzDqBlWaBiGYRiGUTMyxWIxlX9HY3p62vX29pa/O5q38fd4j8P0H47pPx7Tfzim/3hM/+GY/uM56foz29vbBwqN6N/wymQy+hqHjY0N19jYWP7uaHz7T/vnq/wbZW59fd01NTWVvzuanZ0dfa2ri3dDqNY/D2npr2azWq8X7PefamsU8S7bvxonST/rQiLJ5XI184c0/Oco0tQTvVeJ+U+Jw+xba3+o/Plq61ON9yV+4W3or/ovg77rMOX3cNrHEgVy3ICuFbY+JxeSB4VGNpt9637ytol81Hz1IPjGSfAPyyUng/ey0DAMIxwrNAzD8CH+vRnDMAzDMAxPrNAwDMMwDKNmZAqFwu729nb5Ww8q75ruOr2VyqdMQ2+nooFbsjzJoYskD3TQkeTWLh9mKRaLwc/2olG5PtfQoM+1Q7RwfaQlKYyPTULtEmlhnaIP+4SSVEuljtA1AsZmbWhoCUHtsi16dpLbJdIR6i8ixm2V7VJLLfsfnUS+EcWvN1H35UvzEjMZGTcEdOAbtEh2qIswvwa0hKyFgC2ivBYKIyOfdSCv8RpCpV2SwtpHvhFCZBdakL9UEPkpzZfIbyMdoVoi/4h0hPpLpIXXJHZh/Mgub9tfIi2ZsdHR3bW1tdI3vqLEniTZYqHgurq63Jm+Pv00egjz8/NuZmZGgrLochJQUm6U34mJrIu4itvc2ND/Lrfr9OkgLRh2aXHJTU1N6mLXBTrOjvSzurLqhoaH3Cmxja8WxiZBLS0tuZcvX4YnGekHp5FJuFOnTrnu7u43/tpRXCh2mM/8wrx+wj+LFl+7qBaxqVzX3NK85y++9uUT1vjL0uKi2ikbMB8NZGn5fKPr7OxwnWKbkHXGLq8XFtyiaJGivZTwAuzCWrOpdXZ2ug5pfO0LPjc7O6s+Q8ERMp9d8RW05PN5jaH29vYDvsv7lQmVebMeC9JA/dRzbNZjW/rdlnxy6YNL+gn6EH/HN+bm5rQ15sWGmbCYYY7EyeDQkGoJseXa6promHWvxTfIaUHFk2gh3pqbm93Zc+dca2tr+Y34YNt1yfHTkl9XV1eDN8NdiV3yY4vEbuQbvqBlc3PTzc/Nu5XVFfVZb7to6JJLtjVO0NLR0VGKPQ+Yy8ryinv16pWsdzFsDxQdaMGebW1tqoXY8bUvWjSvid+urKyUtNCHTz9qk9IBA385LbmeV984IgfgJ/OS13glX3vpANHCnBi7paXFZf789de7GLupucl/A5Kxt4pb7tXUlBscHHI/vnlDOw1hdGTEjYyMqvO0EUyeE5N5qZGnJifdtevX3MVLl4K0EAQvJl64Bw/uqxOTZHwdGMcjOYyPjbuPP/lEtFz0ThD0QQH48ocf3L1791x3T48kKzbl8g/EhEKQORWKBXf27FmxzfXYfw0wIkoO/F3tiecTWsw1SDDV1XmukSQqNiWSOGtz4yc3gwKBTW1MfIUEgY5m8V1fCILCZsHlG/PunCTw4eHhoIKFQHz+7JnEwCtXlGTFfHyTDPZdXl7W+Ovv73cDg4OatHygjy0pep4+farFBrHgXWjTB8lXEh2+P3z+vNpmfxztLzSwwYiM+4P4KkmWa33XFL0UshQIn/7LP7vTkrBDCuKF+QXJIyNu4sWE65Y+sll0+K0HxfDy8hLmkPj9WLV4J2u5mHUYeToifjqlRX7IBo9d8C3WgPyKf/hCH3Oi5dGjR25J/KxDCgR/HyVmttQ32tra3YUL59VPfUEL+83Y2Jh7/fq1/MluwCFMmvQTHZAvXLygWvA9H8hpryan3P3796XAyEhebBItfj7HfIiHYqEoftIlRfIHrk3s6+svUbEuB389tLDv4P8+6xTlafpiv7l8+XLQgZvcOCtF6fPnz/XQwn4RktMonOiLw1P2s88++w3fUBGSJEkSsZomlLwET706TUNDzvUPDARVc0CSmp2d0b45XUYJK27Ly+mlXpzk+bNxmUunGLjLe0MFTqhTkhhevHjhWiW4sQv9VBuzakO3LCyb2MMHD1zvmTNSJHTH/jvOEeo0sqGzuZM4+8unGWxeddyqTdZHbFKUIgOHqZPTHaci3vMFu3CnZ0GqXK5vbW3xXKPSz+JrJKsNCQiSJn34BuXi60UpwF6onvbODjlZdez1H7dRVFAMUiizNrqZeBaUsL62LhvJtNiXU2tOgyq+Xfg5Wq5kEwlMfK1TfM7XX6CA78qmxLzQwOZUfdxDGmshNqBwYH0o+NtFC31VQnJlzaI4ZzzihQTZ1tomcdPqHTP1EjOrq2tu5MkTd/XaNfV13wIfKNgmJ1+6ZfF3/gEj7Fh1zCMaiZl+8LNz4qMUfb4+Cmyk3I2MtHjnV2nk10npg02190yv+qkvrBdxOzExoZsiOSm/53tVxj7Q8uoDGckf+Dl3nribEaKFwwYb0MzMtGjZ1vXxsktZC/G7vrEutl3W9aGQ891QyWlsqOPjY+KvTeLr7aLFL2YYk1zN+gB3jJvYmD39BS3425Qc2ilaOiSv+cUvdmnYOyjwlIH1YQ/zPUCRoxfFZyl8mBt7YPyc9vfGnFhrqQtd5us//WmXpDAkJ7qQ0xhJ5g9ffaUJ9u4vfqGiQgqN+99/r49OeiQgB6RgCbmLwMT+54//7QaHh9yVK1dVk+8TGAzzRJLds/Fxd/HiRU00GM0HFmpmesb97ssv3U9v3XI35CTCoyUfSA4kKHR899137p8+/TToViU2wa70k63Luk/u/OzACfU4sC3rPDsz62bnZjWYQm5VMiec98XzCTlZLbmf3bkT1M/k5KR7+viJarp89Yrr6ekpvxMfKn/6wcY8qvhATiK+iQpeL7x2z6S4ZXNmjSm2fTcl7MIdPU7AXae63Hk5LfK4zQf6wB6jI6MSf061UCT4EK3zhJxk5mSduAM2KCfF/X63/44GmzKnQmzAnSHGxpY+eYA+8dE//tcf3L/9x7+7Phl7f4EThxkpzEflVLgmcXzjxo3yBumXBNAy8uSprOszd/vjj6TI75dk7Z+PKDI4JBTE127evOmaAvIrB5b//etftYi7+dOfuOvXr5ffiQ/zoVh59PCha5EC7sdiF18dkW+QG9elIOQOwhWJPV/wUw4IFKY5KbApEELyEXnthRROnLqHhob0TgL7lw/k+nE5JD988NCdv3hBDz6+Wsj1HOJ+kPnwGOiKFMnMyTcHYNtpObCQS/BZ7iaixWedsAuPXigoeWx39dpV/RgBBasP3BFhz2AP4zEZsRiS0zgkUzjxtRxgsvqBRYoNFsq3cV293tL3r/grwaCcakJ10KiOSXCc3ENBB0blthUL3lyuuH1bU1Ojd7LdT6SFfrBLVP37Nq7N5cI/1BahWsQuVOzVxjmuob9RbMqdJ4qejG8VWIardI0S+gvryzrzDDLYNnIZp5dojaqNc1RTm8h1FLN6q5THUQnWSdeIeA7229IdgHrJC/QVF2yI/lA/1XFlPXyLzgOIDnQzhxAdUeORGjYI9VHApzS/JvBTHmk3yEk15G5bBDOgoQW7VBsnTsOe3AkpFZnadRDYpV4KNz70G55fS/5Sn+XxQrJ8z3yYV6jfRvGL3yXJscQ+60xfobkkL9fpHphNqEXXSPbABPGsdhEtfJ5PV4hOkzXVlpiom+pjxGvyW7mX5ET97R8jTpPfyr2kR7Vxjmt71+lXKUCfFf37NrlYf6UB3VUbI3aL+im/BsO9QZA+Sy9VxjqmyW96bWLoipd9/fu2EKLr9vcVu+nVkTHD0D6q9e3Zyj2lRrUx4ja0pKsmqZ7k6CrT176+YzcuT+Yqb6JSqowTs2kX5ddE6HOG6mPEaqVe9Ovk5il9yDW4lXuBZLch3iDNVTfeXd5NP3lfvJ/boTRuxxuGkSI1SCInJS+lWGgYhvGuw4caadxWNQzDiIMVGoZhGIZh1AwrNAzDMAzDqBlWaBiGYRiGUTOs0DAMwzAMo2ZYoWEYhmEYRs2wQsMwDMMwjJphhYZhGIZhGDXDCg3DMAzDMGqGFRqGYRiGYdQMKzQMw4gN//Q4jf8p0jAMIw5WaBiGYRiGUTOs0DAMIzb8Hyf639lnUvifKg3DeC+wQsMwDMMwjJphhYZhGIZhGDXDCg3DMAzDMGqGFRqGYRiGYdQMKzQMwzAMw6gZVmgYhmEYhlEzrNAwDMMwDKNmWKFhGIZhGEbNsELDMAzDMIyaYYWGYRixsf/rxDAMX6zQMAzDMAyjZlihYRhGbOz/OjEMw5c6yRjlL5OROPGkmbgsCR4kDZu8c2ZNb0KZFPpKQ01aM4riOT0L+fG2xn2DKGYSiElzHsE+xjyidhI4ITLSJYVJpWSXym5Cu0x1icTv6hzPWlN43qpdyG88uw1upa4SUprP3q/9YxzVdkqvaXNgnLiNa0tdJEf6K71UGSdmS0vQXp/8qujfqyEkiRbpo/Ra+rLqGDFbKlT0U22MOC11jhij6p9XvB9OKcXR587OzhtjxG2poX1VHyNOS+qilaiSKmP4NPmt1FkKlLqrPk6clhbaX4I10pbSKklXB/v2bFoPlvsLRWcjfdGqjXFc2+sjpcKUXuqKxaIGdBK2t3fcZmHTra2tudXVVbe64t821tfdlmiJJhoKc9ncFC2romVl5cA4Rza0S1sXLdglqZbt7W23ubFR1rJvrONaWQt2SaqFa1mjDbHLOmtUbbxjGmu7viFrtLVV8sJAOSUtW66AvwT4yoqsKVoKmwW1byK77GyrbVlvb18pN7RsbG7onERMuWd/mAdaWO8Qu+Ar2Abf304Qz+gghlQLvrvPXyJ7b6xv7I2rNpCfZT2S2cC5oviXjiktJG64lphTLQnY3d1xW7KmaAhaD2loKch6JM2vqmXPT6uPdVTTmJFrC4WC20loF+ZSKGtJZhe0JPBTaWjZ2koWM/jxVnFLckGCNSJmxFf+vu9UGeuYxnXYVNcogRa1C/tOlOsD9OAvaEm6H3Ot7oGiJfPF55/vDg0NuStXr7rW1lYpYvyqGBLM7377pVtaWnQDA4Ouqamp/E58mMr09CvX1tburoqO4fPDLpvNlt6MSZSov/r97zXRtLW1iZbm8rvxYSNFS52Mf+vWbTc8POwa8g3ld+OBcaenp91vv/hP19DQ4M6ePetaxLY4ZFyYz6ZsYIuLi7ro//rLX7pTp055rw82mZqacve/+95NTEy4CxcuuFwu5+1AzIkNrLGx0X344Yeu81Sn9xrRx8yraffwwQM38nTEne0/55qam12d55ywyfLysuvq6nK3Prrtzpw5U34nPvjI+Pi4Gxsd08Sn86nzmw8VP8G8ti7Xd3a6i5cuOWKpri7+R59YBxLLwwcP3ZPHjzUo29rbXEtLSykwYrIj/bCpsTkODAy4IfFb/MUHtOBro6Oj7vHDR/pn5IR8Pq9fw92f/1xio87d++ZbTUjAIWN2Ztad7j7tPvzRj1xvb6/6vY+vEnejIyPui8+/cNeuXRUbtLv6bH353XhgrtXVUpLsk5i7ffu2+qtvzKDl8aNH7t6332o+6+z0jzt++rX4Kb7R3d3j7t6965pbmr37YeP5y5//or5BTjvX389Cld+Nx44UKsQMxfQl8dFP7tzx8lHAN8j130sewT+4/oyss++mSD8Uk8xhUGJlcGiw5Ose0AdxMjYy6r75v29ctj7rTkkuUD/1sA22XVhYEH9ZkzzykeZG/N0HfOW19MH6kF/b2zuCfY48RL4+f+G8u3z5smuV9fbph7WYmZlxjyR2x8fGXHtHu/qMVxzJcGigMQ/8pV/yiW+uR8vk5KR7+uSJm5qcctlf/frXv+np6dFEyQbkSyk5rblcfc41NjWqIIzj2+rlenT09Pao4/FnIRAMGQmCeplLtvyhtditLqMBVC+Oi5a+PgqEFu+gBOyCI+P8Tc1Nex+gi9sYk9Yg13edPq0bGF+HQIXLJk/CaZbiC/tUG/OoRjDn843iJx2uu6fbeyOJQEdxa1s2hV11ZOxCobF/vKMaPsa6sKH1SpFRuRHGJUp46GH8+hw6PO0idszKKwUtm+xpWadmT9+NfpbAppDDZxtyDeqDb4x1XMNf5BW7nO7udh0dHbpGIWhRKWuETTSOKmJ6YHBAXymkOfGoDaTlZS17z/TKptqtm7NvYoItGXdTTrqtrW2Si2Q9PP2U+XNAoKjv6+vTQjTS7guJHzswt5ysx/6xjmul+M3oxkUhTD4hhnjPB/VTySNsAPg5OVZGODDekU10YId22XQowPBT/tyXUsxwB1x8Q/w0Rw6QPz8w3hENu+BX2AUduhFKXyEQv6wT+xaHwUo/jdXELrmGnBbk/efOSZEgxa2nFmzCporvcoeG/vBBr5yGn6uf5bTA7us7o/Eb7Rk+aOxKE1niLw3quxwMDox5WBObZCQPcm2H1ATEc7McBnnPl5IWKUTl0oxUHbts7HQWkhww9NzsnFbuECII6AcN0QkqpB/6oLqkMmTx6cOv9i/BxtwoybJDFp0E6qsFHQTA/NzcXuGD43lrwVsEApoFDwlItFDwcJrhLgBBEIK4n/hHaUMhIEMSOFrYUNGysryixQZOrdnKA25zMg82NLSEFMj4B2uDFk5HIX6iyJxInmhhgwstejiFR48++N7b/2UC3GLHV4gh9IT4S2SX5aVlWasC03tjfc5JQkbf7OysrqVS/pkofkOKUPpkXO6MqF/wh742AOknKye41rZW1cLa+KJaZD2WlpZ0PShAdz2l8OPcZSJOWsQunHRJ+L6gZVl0ELtsrPXSX4ivEjMUsWzsxEwI+AaPKJbFT1l7tUuAGnyjQWKWeMFPQ9YILcTM0uKSalFX8Y6Z0mcSyB/tsrGHaOF6cr0+6ha7sOZByGWoz0oRVrobH1asa34VLeQS3QPp1dMs2AU7kOvREnqo1H1HtLAfZ0SMWiakowiMTUsKGpLogEhHUj0nRUukIQ0tadik8jWUd00LJNUTaUjDLkltAofZhQREYt2fkJPOP4LkmJS0tBxmAx9OmpY0dFS+hnJStEQaTpJdKl9DQMNJ0AGRloz8lkyRYRjvFRQaIXe0DMN4P/G/Z2UYhmEYhhGTjJxODtzR4EMc4POMaH5+Xj98FQff/mv982D6D8f0H8/7op8boNGjk39E/fCPbH8w/Udj+o/m/1+/c38DQFcwTD4LZSAAAAAASUVORK5CYII=;" parent="1" vertex="1">
          <mxGeometry x="460" y="-380" width="538" height="57" as="geometry" />
        </mxCell>
        <mxCell id="DQCrlzxfUJx0nf6Im-Hf-5" value="" style="shape=image;verticalLabelPosition=bottom;labelBackgroundColor=default;verticalAlign=top;aspect=fixed;imageAspect=0;image=data:image/png,iVBORw0KGgoAAAANSUhEUgAAAhoAAAA5CAYAAABwHoKXAAAAAXNSR0IArs4c6QAAAARnQU1BAACxjwv8YQUAAAAJcEhZcwAADsMAAA7DAcdvqGQAABWlSURBVHhe7Z1ZcxzHkcdrMBgMboAgAILExUO85DBpk5JM2k8b2n3c8Mvuhj6E/R38haS1/GKtvbEPlh3ep5UYIfHGQYIiQJzEDczgcP5ypuEhMAC6qnuWMJk/RnEADrrqX1mZWVndQzKzK7h9bG1t6Wt9fb2+xmFqasr19fWVvzsa3/5r/fNg+g/H9B+P6T8c0388pv9wTP/xnHT9deVXwzAMwzCM1LFCwzAMwzCMmmGFhmEYhmEYNcMKDcMwDMMwaoYVGoZhGIZh1AwrNAzDMAzDqBlWaBiGYRiGUTMyxWIxlX9HY3p62vX29pa/O5q38fd4j8P0H47pPx7Tfzim/3hM/+GY/uM56foz29vbBwqN6N/wymQy+hqHjY0N19jYWP7uaHz7T/vnq/wbZW59fd01NTWVvzuanZ0dfa2ri3dDqNY/D2npr2azWq8X7PefamsU8S7bvxonST/rQiLJ5XI184c0/Oco0tQTvVeJ+U+Jw+xba3+o/Plq61ON9yV+4W3or/ovg77rMOX3cNrHEgVy3ICuFbY+JxeSB4VGNpt9637ytol81Hz1IPjGSfAPyyUng/ey0DAMIxwrNAzD8CH+vRnDMAzDMAxPrNAwDMMwDKNmZAqFwu729nb5Ww8q75ruOr2VyqdMQ2+nooFbsjzJoYskD3TQkeTWLh9mKRaLwc/2olG5PtfQoM+1Q7RwfaQlKYyPTULtEmlhnaIP+4SSVEuljtA1AsZmbWhoCUHtsi16dpLbJdIR6i8ixm2V7VJLLfsfnUS+EcWvN1H35UvzEjMZGTcEdOAbtEh2qIswvwa0hKyFgC2ivBYKIyOfdSCv8RpCpV2SwtpHvhFCZBdakL9UEPkpzZfIbyMdoVoi/4h0hPpLpIXXJHZh/Mgub9tfIi2ZsdHR3bW1tdI3vqLEniTZYqHgurq63Jm+Pv00egjz8/NuZmZGgrLochJQUm6U34mJrIu4itvc2ND/Lrfr9OkgLRh2aXHJTU1N6mLXBTrOjvSzurLqhoaH3Cmxja8WxiZBLS0tuZcvX4YnGekHp5FJuFOnTrnu7u43/tpRXCh2mM/8wrx+wj+LFl+7qBaxqVzX3NK85y++9uUT1vjL0uKi2ikbMB8NZGn5fKPr7OxwnWKbkHXGLq8XFtyiaJGivZTwAuzCWrOpdXZ2ug5pfO0LPjc7O6s+Q8ERMp9d8RW05PN5jaH29vYDvsv7lQmVebMeC9JA/dRzbNZjW/rdlnxy6YNL+gn6EH/HN+bm5rQ15sWGmbCYYY7EyeDQkGoJseXa6promHWvxTfIaUHFk2gh3pqbm93Zc+dca2tr+Y34YNt1yfHTkl9XV1eDN8NdiV3yY4vEbuQbvqBlc3PTzc/Nu5XVFfVZb7to6JJLtjVO0NLR0VGKPQ+Yy8ryinv16pWsdzFsDxQdaMGebW1tqoXY8bUvWjSvid+urKyUtNCHTz9qk9IBA385LbmeV984IgfgJ/OS13glX3vpANHCnBi7paXFZf789de7GLupucl/A5Kxt4pb7tXUlBscHHI/vnlDOw1hdGTEjYyMqvO0EUyeE5N5qZGnJifdtevX3MVLl4K0EAQvJl64Bw/uqxOTZHwdGMcjOYyPjbuPP/lEtFz0ThD0QQH48ocf3L1791x3T48kKzbl8g/EhEKQORWKBXf27FmxzfXYfw0wIkoO/F3tiecTWsw1SDDV1XmukSQqNiWSOGtz4yc3gwKBTW1MfIUEgY5m8V1fCILCZsHlG/PunCTw4eHhoIKFQHz+7JnEwCtXlGTFfHyTDPZdXl7W+Ovv73cDg4OatHygjy0pep4+farFBrHgXWjTB8lXEh2+P3z+vNpmfxztLzSwwYiM+4P4KkmWa33XFL0UshQIn/7LP7vTkrBDCuKF+QXJIyNu4sWE65Y+sll0+K0HxfDy8hLmkPj9WLV4J2u5mHUYeToifjqlRX7IBo9d8C3WgPyKf/hCH3Oi5dGjR25J/KxDCgR/HyVmttQ32tra3YUL59VPfUEL+83Y2Jh7/fq1/MluwCFMmvQTHZAvXLygWvA9H8hpryan3P3796XAyEhebBItfj7HfIiHYqEoftIlRfIHrk3s6+svUbEuB389tLDv4P8+6xTlafpiv7l8+XLQgZvcOCtF6fPnz/XQwn4RktMonOiLw1P2s88++w3fUBGSJEkSsZomlLwET706TUNDzvUPDARVc0CSmp2d0b45XUYJK27Ly+mlXpzk+bNxmUunGLjLe0MFTqhTkhhevHjhWiW4sQv9VBuzakO3LCyb2MMHD1zvmTNSJHTH/jvOEeo0sqGzuZM4+8unGWxeddyqTdZHbFKUIgOHqZPTHaci3vMFu3CnZ0GqXK5vbW3xXKPSz+JrJKsNCQiSJn34BuXi60UpwF6onvbODjlZdez1H7dRVFAMUiizNrqZeBaUsL62LhvJtNiXU2tOgyq+Xfg5Wq5kEwlMfK1TfM7XX6CA78qmxLzQwOZUfdxDGmshNqBwYH0o+NtFC31VQnJlzaI4ZzzihQTZ1tomcdPqHTP1EjOrq2tu5MkTd/XaNfV13wIfKNgmJ1+6ZfF3/gEj7Fh1zCMaiZl+8LNz4qMUfb4+Cmyk3I2MtHjnV2nk10npg02190yv+qkvrBdxOzExoZsiOSm/53tVxj7Q8uoDGckf+Dl3nribEaKFwwYb0MzMtGjZ1vXxsktZC/G7vrEutl3W9aGQ891QyWlsqOPjY+KvTeLr7aLFL2YYk1zN+gB3jJvYmD39BS3425Qc2ilaOiSv+cUvdmnYOyjwlIH1YQ/zPUCRoxfFZyl8mBt7YPyc9vfGnFhrqQtd5us//WmXpDAkJ7qQ0xhJ5g9ffaUJ9u4vfqGiQgqN+99/r49OeiQgB6RgCbmLwMT+54//7QaHh9yVK1dVk+8TGAzzRJLds/Fxd/HiRU00GM0HFmpmesb97ssv3U9v3XI35CTCoyUfSA4kKHR899137p8+/TToViU2wa70k63Luk/u/OzACfU4sC3rPDsz62bnZjWYQm5VMiec98XzCTlZLbmf3bkT1M/k5KR7+viJarp89Yrr6ekpvxMfKn/6wcY8qvhATiK+iQpeL7x2z6S4ZXNmjSm2fTcl7MIdPU7AXae63Hk5LfK4zQf6wB6jI6MSf061UCT4EK3zhJxk5mSduAM2KCfF/X63/44GmzKnQmzAnSHGxpY+eYA+8dE//tcf3L/9x7+7Phl7f4EThxkpzEflVLgmcXzjxo3yBumXBNAy8uSprOszd/vjj6TI75dk7Z+PKDI4JBTE127evOmaAvIrB5b//etftYi7+dOfuOvXr5ffiQ/zoVh59PCha5EC7sdiF18dkW+QG9elIOQOwhWJPV/wUw4IFKY5KbApEELyEXnthRROnLqHhob0TgL7lw/k+nE5JD988NCdv3hBDz6+Wsj1HOJ+kPnwGOiKFMnMyTcHYNtpObCQS/BZ7iaixWedsAuPXigoeWx39dpV/RgBBasP3BFhz2AP4zEZsRiS0zgkUzjxtRxgsvqBRYoNFsq3cV293tL3r/grwaCcakJ10KiOSXCc3ENBB0blthUL3lyuuH1bU1Ojd7LdT6SFfrBLVP37Nq7N5cI/1BahWsQuVOzVxjmuob9RbMqdJ4qejG8VWIardI0S+gvryzrzDDLYNnIZp5dojaqNc1RTm8h1FLN6q5THUQnWSdeIeA7229IdgHrJC/QVF2yI/lA/1XFlPXyLzgOIDnQzhxAdUeORGjYI9VHApzS/JvBTHmk3yEk15G5bBDOgoQW7VBsnTsOe3AkpFZnadRDYpV4KNz70G55fS/5Sn+XxQrJ8z3yYV6jfRvGL3yXJscQ+60xfobkkL9fpHphNqEXXSPbABPGsdhEtfJ5PV4hOkzXVlpiom+pjxGvyW7mX5ET97R8jTpPfyr2kR7Vxjmt71+lXKUCfFf37NrlYf6UB3VUbI3aL+im/BsO9QZA+Sy9VxjqmyW96bWLoipd9/fu2EKLr9vcVu+nVkTHD0D6q9e3Zyj2lRrUx4ja0pKsmqZ7k6CrT176+YzcuT+Yqb6JSqowTs2kX5ddE6HOG6mPEaqVe9Ovk5il9yDW4lXuBZLch3iDNVTfeXd5NP3lfvJ/boTRuxxuGkSI1SCInJS+lWGgYhvGuw4caadxWNQzDiIMVGoZhGIZh1AwrNAzDMAzDqBlWaBiGYRiGUTOs0DAMwzAMo2ZYoWEYhmEYRs2wQsMwDMMwjJphhYZhGIZhGDXDCg3DMAzDMGqGFRqGYRiGYdQMKzQMw4gN//Q4jf8p0jAMIw5WaBiGYRiGUTOs0DAMIzb8Hyf639lnUvifKg3DeC+wQsMwDMMwjJphhYZhGIZhGDXDCg3DMAzDMGqGFRqGYRiGYdQMKzQMwzAMw6gZVmgYhmEYhlEzrNAwDMMwDKNmWKFhGIZhGEbNsELDMAzDMIyaYYWGYRixsf/rxDAMX6zQMAzDMAyjZlihYRhGbOz/OjEMw5c6yRjlL5OROPGkmbgsCR4kDZu8c2ZNb0KZFPpKQ01aM4riOT0L+fG2xn2DKGYSiElzHsE+xjyidhI4ITLSJYVJpWSXym5Cu0x1icTv6hzPWlN43qpdyG88uw1upa4SUprP3q/9YxzVdkqvaXNgnLiNa0tdJEf6K71UGSdmS0vQXp/8qujfqyEkiRbpo/Ra+rLqGDFbKlT0U22MOC11jhij6p9XvB9OKcXR587OzhtjxG2poX1VHyNOS+qilaiSKmP4NPmt1FkKlLqrPk6clhbaX4I10pbSKklXB/v2bFoPlvsLRWcjfdGqjXFc2+sjpcKUXuqKxaIGdBK2t3fcZmHTra2tudXVVbe64t821tfdlmiJJhoKc9ncFC2romVl5cA4Rza0S1sXLdglqZbt7W23ubFR1rJvrONaWQt2SaqFa1mjDbHLOmtUbbxjGmu7viFrtLVV8sJAOSUtW66AvwT4yoqsKVoKmwW1byK77GyrbVlvb18pN7RsbG7onERMuWd/mAdaWO8Qu+Ar2Abf304Qz+gghlQLvrvPXyJ7b6xv7I2rNpCfZT2S2cC5oviXjiktJG64lphTLQnY3d1xW7KmaAhaD2loKch6JM2vqmXPT6uPdVTTmJFrC4WC20loF+ZSKGtJZhe0JPBTaWjZ2koWM/jxVnFLckGCNSJmxFf+vu9UGeuYxnXYVNcogRa1C/tOlOsD9OAvaEm6H3Ot7oGiJfPF55/vDg0NuStXr7rW1lYpYvyqGBLM7377pVtaWnQDA4Ouqamp/E58mMr09CvX1tburoqO4fPDLpvNlt6MSZSov/r97zXRtLW1iZbm8rvxYSNFS52Mf+vWbTc8POwa8g3ld+OBcaenp91vv/hP19DQ4M6ePetaxLY4ZFyYz6ZsYIuLi7ro//rLX7pTp055rw82mZqacve/+95NTEy4CxcuuFwu5+1AzIkNrLGx0X344Yeu81Sn9xrRx8yraffwwQM38nTEne0/55qam12d55ywyfLysuvq6nK3Prrtzpw5U34nPvjI+Pi4Gxsd08Sn86nzmw8VP8G8ti7Xd3a6i5cuOWKpri7+R59YBxLLwwcP3ZPHjzUo29rbXEtLSykwYrIj/bCpsTkODAy4IfFb/MUHtOBro6Oj7vHDR/pn5IR8Pq9fw92f/1xio87d++ZbTUjAIWN2Ztad7j7tPvzRj1xvb6/6vY+vEnejIyPui8+/cNeuXRUbtLv6bH353XhgrtXVUpLsk5i7ffu2+qtvzKDl8aNH7t6332o+6+z0jzt++rX4Kb7R3d3j7t6965pbmr37YeP5y5//or5BTjvX389Cld+Nx44UKsQMxfQl8dFP7tzx8lHAN8j130sewT+4/oyss++mSD8Uk8xhUGJlcGiw5Ose0AdxMjYy6r75v29ctj7rTkkuUD/1sA22XVhYEH9ZkzzykeZG/N0HfOW19MH6kF/b2zuCfY48RL4+f+G8u3z5smuV9fbph7WYmZlxjyR2x8fGXHtHu/qMVxzJcGigMQ/8pV/yiW+uR8vk5KR7+uSJm5qcctlf/frXv+np6dFEyQbkSyk5rblcfc41NjWqIIzj2+rlenT09Pao4/FnIRAMGQmCeplLtvyhtditLqMBVC+Oi5a+PgqEFu+gBOyCI+P8Tc1Nex+gi9sYk9Yg13edPq0bGF+HQIXLJk/CaZbiC/tUG/OoRjDn843iJx2uu6fbeyOJQEdxa1s2hV11ZOxCobF/vKMaPsa6sKH1SpFRuRHGJUp46GH8+hw6PO0idszKKwUtm+xpWadmT9+NfpbAppDDZxtyDeqDb4x1XMNf5BW7nO7udh0dHbpGIWhRKWuETTSOKmJ6YHBAXymkOfGoDaTlZS17z/TKptqtm7NvYoItGXdTTrqtrW2Si2Q9PP2U+XNAoKjv6+vTQjTS7guJHzswt5ysx/6xjmul+M3oxkUhTD4hhnjPB/VTySNsAPg5OVZGODDekU10YId22XQowPBT/tyXUsxwB1x8Q/w0Rw6QPz8w3hENu+BX2AUduhFKXyEQv6wT+xaHwUo/jdXELrmGnBbk/efOSZEgxa2nFmzCporvcoeG/vBBr5yGn6uf5bTA7us7o/Eb7Rk+aOxKE1niLw3quxwMDox5WBObZCQPcm2H1ATEc7McBnnPl5IWKUTl0oxUHbts7HQWkhww9NzsnFbuECII6AcN0QkqpB/6oLqkMmTx6cOv9i/BxtwoybJDFp0E6qsFHQTA/NzcXuGD43lrwVsEApoFDwlItFDwcJrhLgBBEIK4n/hHaUMhIEMSOFrYUNGysryixQZOrdnKA25zMg82NLSEFMj4B2uDFk5HIX6iyJxInmhhgwstejiFR48++N7b/2UC3GLHV4gh9IT4S2SX5aVlWasC03tjfc5JQkbf7OysrqVS/pkofkOKUPpkXO6MqF/wh742AOknKye41rZW1cLa+KJaZD2WlpZ0PShAdz2l8OPcZSJOWsQunHRJ+L6gZVl0ELtsrPXSX4ivEjMUsWzsxEwI+AaPKJbFT1l7tUuAGnyjQWKWeMFPQ9YILcTM0uKSalFX8Y6Z0mcSyB/tsrGHaOF6cr0+6ha7sOZByGWoz0oRVrobH1asa34VLeQS3QPp1dMs2AU7kOvREnqo1H1HtLAfZ0SMWiakowiMTUsKGpLogEhHUj0nRUukIQ0tadik8jWUd00LJNUTaUjDLkltAofZhQREYt2fkJPOP4LkmJS0tBxmAx9OmpY0dFS+hnJStEQaTpJdKl9DQMNJ0AGRloz8lkyRYRjvFRQaIXe0DMN4P/G/Z2UYhmEYhhGTjJxODtzR4EMc4POMaH5+Xj98FQff/mv982D6D8f0H8/7op8boNGjk39E/fCPbH8w/Udj+o/m/1+/c38DQFcwTD4LZSAAAAAASUVORK5CYII=;" parent="1" vertex="1">
          <mxGeometry x="979" y="-380" width="538" height="57" as="geometry" />
        </mxCell>
      </root>
    </mxGraphModel>
  </diagram>
</mxfile>
